<svg width="136.963867" height="43.758057" viewBox="0 0 136.964 43.7581" fill="none" xmlns="http://www.w3.org/2000/svg" xmlns:xlink="http://www.w3.org/1999/xlink">
	<desc>
			Created with Pixso.
	</desc>
	<defs/>
	<path d="M12.1367 0L12.1367 0.19165L11.333 0.383301L11.333 8.87549L12.1367 9.06714L12.1367 9.25879L8.3252 9.25879L8.3252 9.06714L9.12891 8.87549L9.12891 1.63647L5.97168 9.3916L5.56934 9.3916L1.47461 1.63647L1.47461 8.66919L2.54688 9.06714L2.54688 9.25879L0 9.25879L0 9.06714L1.07227 8.66919L1.07227 0.383301L0.267578 0.19165L0.267578 0L1.93555 0C2.18945 0 2.41211 0.029541 2.59082 0.0883789C2.76953 0.147461 2.94824 0.221191 3.08301 0.324463C3.23145 0.42749 3.35059 0.54541 3.45508 0.678223C3.55957 0.810791 3.64844 0.973145 3.73828 1.13525L6.65723 6.66406L8.89062 1.13525C8.96484 0.943604 9.04004 0.781494 9.14355 0.648682C9.2334 0.516113 9.35254 0.397949 9.48633 0.294922C9.62012 0.19165 9.78418 0.11792 9.97754 0.0737305C10.1719 0.029541 10.4102 0 10.708 0L12.1367 0Z" fill="#40DDB6" fill-opacity="1.000000" fill-rule="nonzero"/>
	<path d="M16.9023 2.46191C17.4541 2.46191 17.96 2.53564 18.3916 2.69775C18.8242 2.85986 19.1963 3.09595 19.5088 3.39062C19.8213 3.70044 20.0449 4.06885 20.209 4.49658C20.373 4.92407 20.4473 5.42529 20.4473 5.9707C20.4473 6.51636 20.373 7.01758 20.209 7.44507C20.0449 7.8728 19.8066 8.24121 19.5088 8.55078C19.1963 8.8606 18.8242 9.08154 18.3916 9.2439C17.96 9.40601 17.4541 9.47974 16.9023 9.47974C16.3516 9.47974 15.8457 9.40601 15.4131 9.2439C14.9814 9.08154 14.6094 8.8457 14.2969 8.55078C13.9834 8.24121 13.7607 7.8728 13.5967 7.44507C13.4326 7.01758 13.3584 6.51636 13.3584 5.9707C13.3584 5.42529 13.4326 4.92407 13.5967 4.49658C13.7607 4.06885 13.999 3.70044 14.2969 3.39062C14.6094 3.08105 14.9814 2.85986 15.4131 2.69775C15.8457 2.53564 16.3369 2.46191 16.9023 2.46191ZM16.9023 9.229C17.0518 9.229 17.2002 9.18481 17.3643 9.08154C17.5137 8.97852 17.6475 8.81616 17.7666 8.56567C17.8857 8.31494 17.9902 7.99072 18.0645 7.57788C18.1387 7.15039 18.1836 6.61963 18.1836 5.9856C18.1836 5.33691 18.1387 4.80615 18.0645 4.39331C17.9902 3.98047 17.8857 3.64136 17.7666 3.40552C17.6475 3.16968 17.5137 2.99268 17.3643 2.8894C17.2158 2.78638 17.0664 2.74194 16.9023 2.74194C16.7539 2.74194 16.6045 2.78638 16.4414 2.8894C16.292 2.99268 16.1582 3.15479 16.0391 3.40552C15.9199 3.65601 15.8154 3.98047 15.7412 4.39331C15.667 4.8208 15.6221 5.35156 15.6221 5.9856C15.6221 6.63428 15.667 7.16504 15.7412 7.57788C15.8154 7.99072 15.9199 8.32983 16.0391 8.56567C16.1582 8.80151 16.292 8.97852 16.4414 9.08154C16.5898 9.17017 16.7393 9.229 16.9023 9.229Z" fill="#40DDB6" fill-opacity="1.000000" fill-rule="nonzero"/>
	<path d="M26.9551 0C27.7588 0 28.1611 0.397949 28.1611 1.19409L28.1611 8.89014L28.9648 9.08179L28.9648 9.27344L27.7588 9.27344C27.4316 9.27344 27.1777 9.22925 26.9844 9.12622C26.791 9.02295 26.627 8.90503 26.5225 8.78711C26.3887 8.63965 26.2842 8.46265 26.2246 8.28564C26.1055 8.52173 25.957 8.71338 25.7783 8.89014C25.6289 9.0376 25.4209 9.17041 25.168 9.30298C24.9141 9.43579 24.6162 9.49463 24.2744 9.49463C23.8867 9.49463 23.5293 9.4209 23.2021 9.27344C22.8594 9.12622 22.5762 8.90503 22.3379 8.61011C22.0996 8.31519 21.8916 7.94653 21.7578 7.51904C21.6084 7.0769 21.5488 6.57544 21.5488 5.98584C21.5488 5.396 21.623 4.89478 21.7578 4.45239C21.9062 4.01025 22.0996 3.65625 22.3682 3.36157C22.6211 3.06665 22.9336 2.84546 23.291 2.698C23.6484 2.55054 24.0508 2.47681 24.4971 2.47681C24.7354 2.47681 24.9443 2.50635 25.1377 2.55054C25.3311 2.60962 25.4951 2.66846 25.6289 2.74219C25.793 2.81592 25.9268 2.90454 26.0459 3.00757L26.0459 0.42749L25.2422 0.23584L25.2422 0.0441895L26.9551 0.0441895L26.9551 0ZM26.0166 3.39087C25.9121 3.28784 25.8232 3.19922 25.7041 3.12549C25.5996 3.05176 25.4951 2.99292 25.376 2.93384C25.2568 2.875 25.1377 2.86011 25.0039 2.86011C24.8398 2.86011 24.6758 2.90454 24.5273 2.99292C24.3779 3.0813 24.2588 3.22876 24.1396 3.44995C24.0361 3.67114 23.9463 3.99536 23.8867 4.39355C23.8271 4.8064 23.7979 5.32227 23.7979 5.97095C23.7979 6.60498 23.8271 7.1062 23.8867 7.50439C23.9463 7.90234 24.0205 8.21191 24.125 8.43311C24.2148 8.6543 24.3184 8.81641 24.4531 8.89014C24.5723 8.96387 24.6914 9.00806 24.8105 9.00806C25.0186 9.00806 25.1973 8.94922 25.3467 8.84595C25.4951 8.74268 25.6143 8.61011 25.7188 8.47729C25.8379 8.31519 25.9424 8.13843 26.0312 7.94653L26.0312 3.39087L26.0166 3.39087Z" fill="#40DDB6" fill-opacity="1.000000" fill-rule="nonzero"/>
	<path d="M33.4482 9.49438C32.3008 9.49438 31.4072 9.18481 30.7822 8.56543C30.1416 7.94629 29.8291 7.07642 29.8291 5.98535C29.8291 5.43994 29.9033 4.93872 30.0674 4.51123C30.2314 4.0835 30.4551 3.71509 30.7373 3.40527C31.0205 3.0957 31.3633 2.87451 31.7803 2.7124C32.1816 2.55029 32.6289 2.47656 33.1201 2.47656C33.627 2.47656 34.0732 2.55029 34.4609 2.68286C34.8623 2.83032 35.1904 3.02197 35.4736 3.25806C35.7559 3.4939 35.9648 3.77393 36.1133 4.09839C36.2627 4.42261 36.3369 4.76172 36.3369 5.13037C36.3369 5.24829 36.3369 5.36621 36.3223 5.45483C36.3076 5.54321 36.292 5.63159 36.2773 5.70532C36.248 5.7937 36.2324 5.86743 36.2031 5.92651C35.8154 6.00024 35.3984 6.07397 34.9521 6.11816C34.5801 6.17725 34.1475 6.22144 33.6562 6.25073C33.165 6.28027 32.6582 6.30981 32.1221 6.30981C32.1221 6.85522 32.167 7.31226 32.2412 7.68091C32.3164 8.04956 32.4355 8.34448 32.5693 8.55078C32.7178 8.77197 32.8818 8.91943 33.0752 9.00781C33.2695 9.09619 33.4922 9.14062 33.7158 9.14062C33.9844 9.14062 34.2373 9.09619 34.4756 8.99316C34.7139 8.88989 34.9219 8.77197 35.0859 8.60986C35.2646 8.44751 35.3984 8.25586 35.5029 8.04956C35.6074 7.84302 35.6523 7.63672 35.6523 7.41553L35.9795 7.41553C35.9795 7.68091 35.9199 7.93164 35.8008 8.18213C35.6816 8.43286 35.5029 8.65405 35.2793 8.8457C35.0566 9.03735 34.7881 9.18481 34.4756 9.30273C34.1777 9.4353 33.835 9.49438 33.4482 9.49438ZM32.1074 5.9707C32.4053 5.9707 32.6738 5.9707 32.9121 5.95605C33.1504 5.94116 33.3438 5.92651 33.5078 5.91187C33.7012 5.89697 33.8496 5.86743 33.9844 5.85278C33.999 5.7644 34.0283 5.66113 34.0439 5.55786C34.0586 5.45483 34.0732 5.35156 34.0879 5.23364C34.1035 5.11572 34.1035 4.98291 34.1035 4.85034C34.1035 4.45215 34.0732 4.11304 34.0137 3.84766C33.9541 3.58228 33.8799 3.36108 33.7754 3.18433C33.6865 3.02197 33.582 2.8894 33.4482 2.83032C33.3135 2.77148 33.21 2.72729 33.0908 2.72729C32.9717 2.72729 32.8525 2.77148 32.7334 2.85986C32.6143 2.94824 32.5098 3.1106 32.4053 3.33179C32.3164 3.56763 32.2266 3.89185 32.167 4.31958C32.1074 4.74707 32.1074 5.29248 32.1074 5.9707Z" fill="#40DDB6" fill-opacity="1.000000" fill-rule="nonzero"/>
	<path d="M41.9668 2.91919C41.6982 2.91919 41.46 2.97803 41.252 3.0813C41.043 3.18457 40.8643 3.31714 40.7158 3.44995C40.5518 3.61206 40.418 3.78882 40.2832 3.98071L40.2832 8.89014L41.0879 9.08179L41.0879 9.27344L37.335 9.27344L37.335 9.08179L38.1387 8.89014L38.1387 3.05176L37.335 2.86011L37.335 2.66846L38.541 2.66846C38.8535 2.66846 39.1074 2.72729 39.3154 2.83057C39.5088 2.93384 39.6729 3.05176 39.792 3.16968C39.9258 3.31714 40.0303 3.47925 40.0898 3.65625C40.2236 3.4646 40.3877 3.2876 40.5811 3.12549C40.7451 2.99268 40.9541 2.87476 41.207 2.75684C41.46 2.63892 41.7432 2.59473 42.0859 2.59473C42.5625 2.59473 42.9199 2.71265 43.1582 2.91919C43.3965 3.14014 43.5 3.44995 43.5 3.8479C43.5 4.14282 43.4111 4.39331 43.2324 4.57031C43.0537 4.74731 42.8008 4.83569 42.5029 4.83569C42.4277 4.83569 42.3682 4.83569 42.2939 4.83569C42.2197 4.83569 42.1748 4.82104 42.1299 4.82104C42.0703 4.80615 42.0107 4.80615 41.9668 4.77686L41.9668 2.91919Z" fill="#40DDB6" fill-opacity="1.000000" fill-rule="nonzero"/>
	<path d="M49.2637 4.64404C49.2637 4.34912 49.2334 4.08374 49.1738 3.86255C49.1143 3.64136 49.04 3.4646 48.9355 3.33179C48.8467 3.18433 48.7422 3.0813 48.6084 3.02222C48.4893 2.96338 48.3701 2.91895 48.251 2.91895C48.042 2.91895 47.8633 2.97803 47.7148 3.0813C47.5654 3.18433 47.4316 3.31714 47.3418 3.44971C47.2227 3.61206 47.1338 3.78882 47.0439 3.98047L47.0439 8.89014L47.8486 9.08179L47.8486 9.27344L44.0957 9.27344L44.0957 9.08179L44.8994 8.89014L44.8994 3.05176L44.0957 2.86011L44.0957 2.66846L45.3018 2.66846C45.6143 2.66846 45.8682 2.72729 46.0762 2.83057C46.2695 2.93384 46.4336 3.05176 46.5527 3.16968C46.6865 3.31714 46.791 3.47925 46.8506 3.65625C46.9697 3.43506 47.1191 3.22876 47.2979 3.05176C47.4463 2.9043 47.6553 2.77173 47.8936 2.63892C48.1318 2.50635 48.4443 2.44727 48.8018 2.44727C49.1885 2.44727 49.5459 2.50635 49.8594 2.63892C50.1865 2.75684 50.4551 2.93384 50.6777 3.12549C50.9014 3.33179 51.0801 3.55298 51.2139 3.81836C51.3486 4.08374 51.4082 4.34912 51.4082 4.62939L51.4082 8.87524L52.2119 9.06689L52.2119 9.25879L50.4697 9.25879C49.665 9.25879 49.2637 8.8606 49.2637 8.06445L49.2637 4.64404Z" fill="#40DDB6" fill-opacity="1.000000" fill-rule="nonzero"/>
	<path d="M1.41504 18.5911L1.41504 18.0457L11.7646 18.0457L11.7646 18.5911L9.59082 19.1367L9.59082 30.2678L17.3945 30.2678L17.3945 19.1367L15.2197 18.5911L15.2197 18.0457L25.5703 18.0457L25.5703 18.5911L23.3955 19.1367L23.3955 42.1362L25.5703 42.6816L25.5703 43.2273L15.2197 43.2273L15.2197 42.667L17.3945 42.1216L17.3945 31.1672L9.59082 31.1672L9.59082 42.1216L11.7646 42.667L11.7646 43.2124L1.41504 43.2124L1.41504 42.667L3.58887 42.1216L3.58887 19.1218L1.41504 18.5911Z" fill="#37393F" fill-opacity="1.000000" fill-rule="nonzero"/>
	<path d="M38.4365 24.6951C39.9404 24.6951 41.2812 24.9163 42.4727 25.3438C43.6641 25.7712 44.6621 26.4053 45.4961 27.231C46.3301 28.0566 46.9697 29.0591 47.4023 30.2385C47.834 31.418 48.0576 32.7449 48.0576 34.2339C48.0576 35.7231 47.834 37.05 47.4023 38.2295C46.9697 39.4089 46.3301 40.3967 45.4961 41.2224C44.6621 42.0479 43.6494 42.6819 42.4727 43.1094C41.2812 43.5371 39.9404 43.7581 38.4365 43.7581C36.9326 43.7581 35.5928 43.5371 34.4014 43.1094C33.21 42.6819 32.2119 42.0479 31.3779 41.2224C30.5439 40.3967 29.9033 39.394 29.4717 38.2295C29.04 37.05 28.8164 35.7231 28.8164 34.2339C28.8164 32.7449 29.04 31.418 29.4717 30.2385C29.9033 29.0591 30.5439 28.0713 31.3779 27.231C32.2119 26.3906 33.2246 25.7712 34.4014 25.3438C35.5928 24.9163 36.9326 24.6951 38.4365 24.6951ZM38.4365 43.021C38.8535 43.021 39.2559 42.8884 39.6729 42.623C40.0898 42.3577 40.4473 41.9006 40.7744 41.2371C41.1025 40.5737 41.3701 39.6743 41.5791 38.5391C41.7871 37.4038 41.8916 35.959 41.8916 34.2046C41.8916 32.45 41.7871 31.0051 41.5791 29.8699C41.3701 28.7346 41.1025 27.8354 40.7744 27.1719C40.4473 26.5085 40.0752 26.0515 39.6729 25.7861C39.2705 25.5208 38.8535 25.3879 38.4365 25.3879C38.0195 25.3879 37.6182 25.5208 37.2012 25.7861C36.7842 26.0515 36.4268 26.5085 36.0986 27.1719C35.7715 27.8354 35.5029 28.7346 35.2949 29.8699C35.0859 31.0051 34.9814 32.45 34.9814 34.2046C34.9814 35.959 35.0859 37.4038 35.2949 38.5391C35.5029 39.6743 35.7715 40.5737 36.0986 41.2371C36.4268 41.9006 36.7988 42.3577 37.2012 42.623C37.6182 42.8884 38.0195 43.021 38.4365 43.021Z" fill="#37393F" fill-opacity="1.000000" fill-rule="nonzero"/>
	<path d="M75.2656 30.6223C75.2656 29.7671 75.1904 29.03 75.042 28.4551C74.8926 27.8801 74.7139 27.3936 74.4756 27.0249C74.2373 26.6562 73.9844 26.3909 73.7168 26.2141C73.4336 26.052 73.166 25.9634 72.8975 25.9634C72.4355 25.9634 72.0342 26.1108 71.6768 26.4058C71.3193 26.7007 71.0215 27.0398 70.7529 27.3936C70.4697 27.821 70.2021 28.3076 69.9932 28.8237L69.9932 42.1221L72.1826 42.6677L72.1826 43.2131L62.0264 43.2131L62.0264 42.6677L64.2002 42.1221L64.2002 30.6223C64.2002 29.7671 64.126 29.03 63.9766 28.4551C63.8281 27.8801 63.6494 27.3936 63.4111 27.0249C63.1729 26.6562 62.9199 26.3909 62.6514 26.2141C62.3691 26.052 62.1006 25.9634 61.832 25.9634C61.3711 25.9634 60.9688 26.1108 60.6113 26.4058C60.2539 26.7007 59.9561 27.0398 59.6885 27.3936C59.3906 27.821 59.1367 28.3076 58.9287 28.8237L58.9287 42.1221L61.1025 42.6677L61.1025 43.2131L50.9463 43.2131L50.9463 42.6677L53.1201 42.1221L53.1201 26.3174L50.9463 25.7717L50.9463 25.2263L54.208 25.2263C55.0566 25.2263 55.7568 25.3738 56.293 25.6538C56.8438 25.9338 57.2607 26.2583 57.5879 26.5828C57.9453 26.9954 58.2139 27.4377 58.3926 27.9097C58.7051 27.3052 59.0928 26.7744 59.5537 26.2878C59.9707 25.875 60.4775 25.5063 61.0732 25.1672C61.6836 24.8281 62.4131 24.666 63.292 24.666C64.7363 24.666 66.002 24.9905 67.0449 25.6243C68.1025 26.2583 68.9062 27.084 69.457 28.0864C69.7705 27.4673 70.1572 26.907 70.6191 26.3909C71.0361 25.9634 71.542 25.5654 72.1377 25.2114C72.749 24.8577 73.4785 24.666 74.3564 24.666C75.3545 24.666 76.248 24.8281 77.082 25.1377C77.9014 25.4475 78.6162 25.875 79.2119 26.4204C79.8076 26.9661 80.2695 27.5852 80.5967 28.3076C80.9248 29.03 81.0879 29.7966 81.0879 30.6077L81.0879 42.1074L83.2627 42.6528L83.2627 43.1985L78.542 43.1985C76.3672 43.1985 75.2803 42.1221 75.2803 39.9695L75.2803 30.6223L75.2656 30.6223Z" fill="#37393F" fill-opacity="1.000000" fill-rule="nonzero"/>
	<path d="M95.2354 43.7437C92.1377 43.7437 89.7256 42.9033 88.0127 41.208C86.2998 39.5125 85.4365 37.1978 85.4365 34.2195C85.4365 32.7305 85.6602 31.4036 86.0918 30.2241C86.5234 29.0447 87.1338 28.0569 87.9082 27.2166C88.6826 26.3909 89.6211 25.7568 90.7236 25.3293C91.8252 24.9019 93.0312 24.6807 94.3271 24.6807C95.6826 24.6807 96.9033 24.8723 97.9756 25.2556C99.0479 25.6389 99.9717 26.155 100.716 26.8037C101.461 27.4524 102.041 28.219 102.443 29.0889C102.846 29.9587 103.039 30.8877 103.039 31.8755C103.039 32.2146 103.024 32.5093 102.979 32.76C102.935 33.0107 102.905 33.2317 102.846 33.4233C102.771 33.6594 102.712 33.8657 102.667 34.0278C101.595 34.249 100.478 34.426 99.2861 34.5735C98.2734 34.7209 97.0967 34.8389 95.7715 34.9568C94.4463 35.0601 93.0469 35.1189 91.6016 35.1189C91.6016 36.6079 91.7061 37.8464 91.9297 38.8342C92.1533 39.822 92.4512 40.6182 92.8379 41.208C93.2256 41.7976 93.6865 42.2104 94.2227 42.4612C94.7588 42.7117 95.3398 42.8445 95.9658 42.8445C96.6953 42.8445 97.3799 42.7117 98.0205 42.4463C98.6611 42.1809 99.2119 41.8271 99.6885 41.3848C100.165 40.9426 100.537 40.4412 100.82 39.8811C101.104 39.3208 101.237 38.7458 101.237 38.1709L102.146 38.1709C102.146 38.8933 101.981 39.5862 101.654 40.2495C101.326 40.9277 100.865 41.5176 100.254 42.0334C99.6436 42.5496 98.9287 42.9624 98.0801 43.272C97.2168 43.5815 96.2637 43.7437 95.2354 43.7437ZM91.6016 34.2195C92.4209 34.2195 93.1504 34.2048 93.7764 34.1606C94.4014 34.1165 94.9375 34.0869 95.3701 34.0427C95.876 33.9985 96.3076 33.9395 96.6807 33.8657C96.7246 33.6299 96.7842 33.3645 96.8594 33.0696C96.9033 32.8042 96.9482 32.5093 96.9775 32.1851C97.0078 31.8606 97.0371 31.5215 97.0371 31.1677C97.0371 30.0916 96.9482 29.1921 96.7842 28.4548C96.6201 27.7178 96.3975 27.1282 96.1445 26.6709C95.8906 26.2139 95.5928 25.8896 95.2803 25.698C94.9531 25.5063 94.625 25.4031 94.3125 25.4031C94 25.4031 93.6719 25.521 93.3447 25.7422C93.0166 25.978 92.7334 26.4055 92.4805 27.0396C92.2275 27.6736 92.0186 28.573 91.8398 29.7229C91.6914 30.8728 91.6016 32.3767 91.6016 34.2195Z" fill="#37393F" fill-opacity="1.000000" fill-rule="nonzero"/>
	<path d="M120.865 42.844L120.865 28.2629L107.85 18.0605L107.85 42.844L120.865 42.844Z" fill="#6B77E5" fill-opacity="1.000000" fill-rule="nonzero"/>
	<path d="M136.964 42.844L136.964 28.2629L124.156 18.0605L124.156 42.844L136.964 42.844Z" fill="#6B77E5" fill-opacity="1.000000" fill-rule="nonzero"/>
</svg>
