<svg width="103.307617" height="98.969971" viewBox="0 0 103.308 98.97" fill="none" xmlns="http://www.w3.org/2000/svg" xmlns:xlink="http://www.w3.org/1999/xlink">
	<desc>
			Created with Pixso.
	</desc>
	<defs/>
	<path d="M88.3711 83.0232C88.541 83.0142 88.7012 82.9072 88.7637 82.7468C90.8945 77.55 94.085 62.04 94.1035 57.9485C94.1836 40.2815 92.4629 35.7622 86.7852 20.8047L85.8135 18.2466C85.7236 18.0146 85.4658 17.8899 85.2334 17.979C85.002 18.0684 84.877 18.3267 84.9668 18.5586L85.9385 21.1167C91.5713 35.9583 93.2744 40.4419 93.1943 57.9397C93.1758 61.9688 90.0205 77.2649 87.917 82.3992C87.8184 82.6309 87.9346 82.8984 88.166 82.9875C88.2373 83.0142 88.2998 83.0232 88.3711 83.0232Z" fill="#40DDB6" fill-opacity="1.000000" fill-rule="nonzero"/>
	<path d="M93.1846 62.8958C93.2295 62.8958 93.2744 62.8867 93.3184 62.8689C93.5508 62.7798 93.6758 62.5212 93.5859 62.2896C92.623 59.6689 90.2881 57.2891 88.7373 55.7024L88.4072 55.3635C87.5518 54.49 85.5547 52.1458 84.9756 51.085C84.708 50.5947 84.4492 50.1401 84.2002 49.7034C82.4883 46.6816 81.4639 44.8542 81.0449 39.8625C81.0264 39.6128 80.8125 39.4167 80.5537 39.4524C80.3047 39.4702 80.1172 39.6931 80.1445 39.9426C80.5811 45.1306 81.7041 47.1272 83.415 50.1489C83.6562 50.5769 83.915 51.0315 84.1816 51.5217C84.8154 52.6626 86.8564 55.0693 87.7656 55.9963L88.0957 56.3352C89.6816 57.9485 91.8477 60.1592 92.7393 62.5928C92.8105 62.7888 92.998 62.9045 93.1846 62.8958Z" fill="#40DDB6" fill-opacity="1.000000" fill-rule="nonzero"/>
	<path d="M93.5322 45.4692C93.6836 45.4604 93.8359 45.3711 93.9072 45.2197C95.2441 42.5901 96.5723 39.907 97.8379 37.2507C99.2109 34.3625 100.494 31.2964 99.7451 28.2568C99.6826 28.0161 99.4424 27.8645 99.2012 27.927C98.9609 27.9893 98.8096 28.23 98.8721 28.4707C99.5488 31.2251 98.3281 34.1221 97.0264 36.8586C95.7607 39.5059 94.4414 42.1802 93.1045 44.8008C92.9883 45.0237 93.0781 45.2998 93.3008 45.407C93.3809 45.4604 93.4521 45.4692 93.5322 45.4692Z" fill="#40DDB6" fill-opacity="1.000000" fill-rule="nonzero"/>
	<path d="M86.7246 9.38647C89.1357 11.5269 89.3555 15.217 87.2158 17.6287C85.0752 20.0403 81.3848 20.2603 78.9727 18.1199C76.5615 15.9792 76.3418 12.2891 78.4824 9.87744C80.6221 7.46582 84.3125 7.24609 86.7246 9.38647Z" fill="#40DDB6" fill-opacity="1.000000" fill-rule="evenodd"/>
	<path d="M93.8535 24.9141C93.9961 27.3655 96.0996 29.2463 98.5508 29.1038C101.002 28.9609 102.883 26.8574 102.74 24.406C102.598 21.9548 100.494 20.074 98.043 20.2166C95.583 20.3591 93.7109 22.4629 93.8535 24.9141Z" fill="#40DDB6" fill-opacity="1.000000" fill-rule="nonzero"/>
	<path d="M75.9287 36.4668C76.0713 38.9182 78.1748 40.7991 80.6348 40.6565C83.0859 40.5137 84.9668 38.4102 84.8242 35.9587C84.6816 33.5076 82.5781 31.6267 80.127 31.7693C77.667 31.9031 75.7861 34.0066 75.9287 36.4668Z" fill="#40DDB6" fill-opacity="1.000000" fill-rule="nonzero"/>
	<path d="M81.3662 33.0076C81.5801 32.9988 81.7578 32.8381 81.7852 32.6243C81.9092 31.7954 82.3379 30.1284 82.6943 29.3262C82.792 29.0945 82.6943 28.8269 82.4619 28.729C82.2305 28.6309 81.9629 28.729 81.8652 28.9607C81.4727 29.8521 81.0186 31.5903 80.8936 32.4995C80.8574 32.749 81.0273 32.981 81.2764 33.0166C81.3037 33.0076 81.3389 33.0166 81.3662 33.0076Z" fill="#40DDB6" fill-opacity="1.000000" fill-rule="nonzero"/>
	<path d="M79.0391 33.3733C79.1816 33.3643 79.3242 33.2842 79.4043 33.1592C79.5293 32.9453 79.4668 32.6689 79.2529 32.5354C79.2266 32.5085 79.0303 32.2856 78.8789 31.0378C78.8428 30.699 78.8789 30.3872 78.9229 30.0574C78.959 29.7632 79.0039 29.469 78.9941 29.1304C78.9854 28.8806 78.7803 28.6846 78.5312 28.6846C78.3086 28.6846 78.085 28.8984 78.085 29.1482C78.0947 29.4333 78.0586 29.6919 78.0234 29.9414C77.9785 30.3159 77.9248 30.699 77.9785 31.1448C78.1299 32.4106 78.3711 33.0613 78.7803 33.3108C78.8613 33.3555 78.9502 33.3733 79.0391 33.3733Z" fill="#40DDB6" fill-opacity="1.000000" fill-rule="nonzero"/>
	<path d="M78.1738 34.1584C78.2451 34.1584 78.3262 34.1316 78.3877 34.0869C78.6016 33.9534 78.6641 33.677 78.5303 33.4631C77.4697 31.7695 76.5879 30.7175 75.8389 30.2363C75.625 30.1025 75.3486 30.165 75.2148 30.3789C75.0811 30.5928 75.1436 30.8691 75.3574 31.0029C75.9814 31.4041 76.793 32.3933 77.7637 33.9443C77.8535 34.0869 78.0137 34.1672 78.1738 34.1584Z" fill="#40DDB6" fill-opacity="1.000000" fill-rule="nonzero"/>
	<path d="M99.6123 21.8389C99.8086 21.8301 99.9688 21.6785 100.005 21.4824C100.111 20.7158 100.513 19.1826 100.843 18.4338C100.932 18.22 100.843 17.9792 100.629 17.8813C100.415 17.792 100.174 17.8813 100.076 18.0952C99.7197 18.9153 99.3008 20.5198 99.1758 21.3577C99.1406 21.5894 99.3008 21.7944 99.5322 21.8301C99.5498 21.8389 99.5771 21.8389 99.6123 21.8389Z" fill="#40DDB6" fill-opacity="1.000000" fill-rule="nonzero"/>
	<path d="M98.373 22.1152C98.5068 22.1062 98.6318 22.0349 98.7031 21.9102C98.8193 21.7141 98.7568 21.4556 98.5605 21.3396C98.5342 21.313 98.3555 21.1079 98.2129 19.958C98.168 19.5657 98.2041 19.218 98.249 18.7368C98.2754 18.5051 98.293 18.2466 98.3203 17.9346C98.3379 17.7029 98.1592 17.5066 97.9277 17.4888C97.6963 17.48 97.5 17.6494 97.4824 17.8811C97.4639 18.1753 97.4375 18.4338 97.4111 18.6565C97.3574 19.1646 97.3213 19.5747 97.375 20.0562C97.5088 21.2236 97.7314 21.821 98.1152 22.0527C98.2041 22.1062 98.293 22.124 98.373 22.1152Z" fill="#40DDB6" fill-opacity="1.000000" fill-rule="nonzero"/>
	<path d="M97.5713 22.8374C97.6426 22.8374 97.7041 22.8105 97.7666 22.7749C97.9629 22.6501 98.0254 22.3916 97.9004 22.1956C96.9287 20.6357 96.1182 19.6641 95.4229 19.2273C95.2266 19.1025 94.9678 19.1648 94.8428 19.3521C94.7188 19.5481 94.7812 19.8066 94.9678 19.9314C95.5479 20.2969 96.2959 21.2151 97.1875 22.6414C97.2764 22.7749 97.4189 22.8462 97.5713 22.8374Z" fill="#40DDB6" fill-opacity="1.000000" fill-rule="nonzero"/>
	<path d="M80.1357 9.53784C80.2158 9.52881 80.2871 9.51099 80.3584 9.46655C80.5635 9.32397 80.626 9.04761 80.4834 8.84253C80.0107 8.13843 79.2266 6.62305 78.9502 5.78516C78.8701 5.54443 78.6113 5.41968 78.3799 5.49976C78.1387 5.58008 78.0146 5.83862 78.0947 6.07031C78.3975 6.98853 79.2266 8.58398 79.7344 9.35059C79.8242 9.47534 79.9756 9.54663 80.1357 9.53784Z" fill="#40DDB6" fill-opacity="1.000000" fill-rule="nonzero"/>
	<path d="M79.4492 10.4116C79.4854 10.4116 79.5205 10.4026 79.5566 10.3938C79.8057 10.3491 79.9668 10.1084 79.9131 9.86768C79.8682 9.61816 79.6191 9.45776 79.3867 9.51123C79.3428 9.51123 79.0488 9.47559 78.1035 8.64648C77.8447 8.42383 77.667 8.16528 77.4795 7.88892C77.3105 7.64819 77.1406 7.39868 76.9092 7.14917C76.7393 6.96191 76.4541 6.95288 76.2676 7.13135C76.0801 7.30054 76.0713 7.58594 76.249 7.77295C76.4453 7.97803 76.5879 8.19189 76.7393 8.40601C76.9531 8.71802 77.1768 9.03882 77.5156 9.33301C78.3975 10.0996 78.9951 10.4382 79.4492 10.4116Z" fill="#40DDB6" fill-opacity="1.000000" fill-rule="nonzero"/>
	<path d="M79.3779 11.5696C79.5645 11.5608 79.7344 11.436 79.7871 11.24C79.8584 10.9993 79.7158 10.7495 79.4756 10.6782C77.5586 10.1345 76.1953 9.93848 75.3213 10.0811C75.0723 10.1257 74.9121 10.3574 74.9473 10.6069C74.9922 10.8567 75.2236 11.0259 75.4736 10.9814C76.2041 10.8567 77.4697 11.0527 79.2354 11.5518C79.2793 11.5608 79.3242 11.5696 79.3779 11.5696Z" fill="#40DDB6" fill-opacity="1.000000" fill-rule="nonzero"/>
	<path d="M91.1533 70.7935C90.1016 70.7578 88.2109 70.0981 87.5254 69.1177C87.3828 68.9126 86.6602 67.843 86.5088 67.0408C86.3398 66.1138 86.3398 65.3381 86.5088 64.2595C86.75 62.762 86.8027 62.6997 87.0615 62.6016C87.2217 62.5393 87.418 62.468 88.8174 63.4395C90.4844 64.5894 92.0537 67.3972 91.8037 70.0981C91.7949 70.2319 91.7236 70.3477 91.625 70.4189C91.5898 70.6331 91.4199 70.7935 91.2061 70.8022C91.1797 70.7935 91.1709 70.7935 91.1533 70.7935ZM87.4004 64.4021C87.2402 65.3828 87.2402 66.0513 87.3916 66.8713C87.4717 67.3259 87.8906 68.0657 88.2646 68.6006C88.6748 69.1799 89.9854 69.7415 90.9033 69.8665C91.0547 67.5754 89.6914 65.1509 88.3008 64.1882C88.2021 64.1169 87.8281 63.8853 87.5254 63.698C87.4805 63.9475 87.4268 64.2417 87.4004 64.4021Z" fill="#40DDB6" fill-opacity="1.000000" fill-rule="nonzero"/>
	<path d="M81.9355 54.2227C81.7129 54.2048 80.5723 54.0713 79.9307 53.7058C79.208 53.2869 78.6738 52.8323 78.0498 52.0923C77.2021 51.0852 77.1582 51.0137 77.2471 50.7554C77.3008 50.6125 77.3633 50.4434 78.834 50.051C80.5898 49.5876 83.3975 50.158 85.0732 51.8962C85.1533 51.9854 85.1895 52.0923 85.1895 52.1992C85.3232 52.3508 85.3232 52.5825 85.1807 52.7341C84.6006 53.3669 83.2725 54.1692 82.2295 54.2227C82.1318 54.2317 82.0342 54.2317 81.9355 54.2227ZM79.0479 50.8354C78.9404 50.8623 78.5664 50.978 78.2637 51.0762C78.3789 51.2188 78.5215 51.3882 78.6738 51.5664C79.2441 52.2439 79.6982 52.6272 80.3496 53.0015C80.7061 53.2065 81.4453 53.3582 82.0254 53.4116C82.6582 53.4829 83.79 52.9124 84.4141 52.3599C82.9434 50.9336 80.5098 50.4521 79.0479 50.8354Z" fill="#40DDB6" fill-opacity="1.000000" fill-rule="nonzero"/>
	<path d="M84.6543 51.9673C84.5566 51.9229 84.4766 51.8337 84.4492 51.7178C83.79 49.3914 84.7256 46.6814 86.0098 45.3979C87.0791 44.3193 87.2754 44.355 87.418 44.3818C87.667 44.4263 87.7207 44.4797 88.167 45.7456C88.4873 46.6636 88.6123 47.3501 88.6123 48.188C88.6123 48.9189 88.1396 49.9707 88.0508 50.1758C87.6055 51.1472 86.0537 52.0298 85.1357 52.2258C85.1182 52.2349 85.0918 52.2349 85.0732 52.2349C84.877 52.2527 84.708 52.1367 84.6543 51.9673ZM86.5713 45.9683C85.501 47.0381 84.6904 49.3823 85.1895 51.3701C85.9824 51.1116 87.0439 50.4075 87.3018 49.8369C87.543 49.311 87.792 48.5979 87.792 48.188C87.792 47.4392 87.6855 46.8508 87.3916 46.022C87.3291 45.8435 87.248 45.6208 87.168 45.4158C86.9365 45.6296 86.6426 45.897 86.5713 45.9683Z" fill="#40DDB6" fill-opacity="1.000000" fill-rule="nonzero"/>
	<path d="M93.7559 54.3123C93.5508 54.2764 93.417 54.0894 93.4258 53.8843C93.3545 53.804 93.3184 53.6882 93.3369 53.5723C93.6572 51.1833 95.5918 49.062 97.2764 48.3933C98.6934 47.8318 98.8457 47.9387 98.9697 48.019C99.1836 48.1616 99.2109 48.2329 99.1221 49.5701C99.0508 50.5415 98.8984 51.219 98.5605 51.9856C98.2744 52.6362 97.4902 53.3762 97.25 53.5901C96.7061 54.0715 95.7168 54.321 94.8516 54.3657C94.4414 54.3923 94.0498 54.3745 93.7559 54.3123ZM97.5791 49.1421C96.1709 49.6948 94.4951 51.531 94.166 53.5544C94.9941 53.6257 96.2422 53.4119 96.7148 52.9839C97.1426 52.5918 97.6602 52.0391 97.8203 51.6558C98.123 50.9695 98.2568 50.3901 98.3193 49.5076C98.3281 49.3203 98.3457 49.0798 98.3555 48.8657C98.043 48.9727 97.6777 49.1064 97.5791 49.1421Z" fill="#40DDB6" fill-opacity="1.000000" fill-rule="nonzero"/>
	<path d="M96.751 38.8459C96.5811 38.748 96.5186 38.543 96.5996 38.3735C96.5635 38.2756 96.5635 38.1687 96.6172 38.0706C97.6152 36.1006 99.9062 34.8347 101.573 34.7456C101.591 34.7456 101.608 34.7456 101.627 34.7456C103.026 34.6833 103.142 34.8259 103.222 34.9329C103.374 35.1289 103.355 35.2092 102.884 36.3323C102.526 37.1614 102.188 37.7051 101.662 38.2666C101.198 38.7659 100.228 39.1848 100.04 39.2649C99.8262 39.3542 99.5762 39.4077 99.2998 39.4165C98.3994 39.479 97.3213 39.1848 96.751 38.8459ZM101.645 35.4944C100.218 35.5747 98.2305 36.6443 97.3301 38.3113C98.0342 38.6321 99.1934 38.8193 99.7275 38.5876C100.218 38.3826 100.833 38.0437 101.092 37.7676C101.564 37.2593 101.858 36.7959 102.179 36.0381C102.269 35.8242 102.349 35.637 102.402 35.4944C102.099 35.4856 101.742 35.4856 101.645 35.4944Z" fill="#40DDB6" fill-opacity="1.000000" fill-rule="nonzero"/>
	<path d="M96.3057 38.6145C95.4492 38.4629 93.9785 37.7231 93.5244 36.8496C93.4258 36.6624 92.9541 35.7175 92.918 35.04C92.8828 34.2646 92.9629 33.6316 93.2217 32.7671C93.5781 31.5815 93.6221 31.5281 93.8545 31.4746C93.9883 31.439 94.1572 31.4033 95.2002 32.3481C96.4395 33.4712 97.4111 35.9404 96.9023 38.1152C96.876 38.2222 96.8135 38.3115 96.7246 38.356C96.6797 38.5076 96.5459 38.6145 96.3857 38.6233C96.3682 38.6145 96.332 38.6145 96.3057 38.6145ZM93.9434 32.9722C93.7119 33.7563 93.6309 34.3003 93.667 34.9866C93.6846 35.3608 93.9434 36.0117 94.1836 36.4929C94.4512 37.01 95.459 37.6162 96.1982 37.821C96.5732 35.967 95.7256 33.8367 94.6924 32.8918C94.6211 32.8293 94.3447 32.5889 94.1123 32.4104C94.0596 32.5977 93.9971 32.8115 93.9434 32.9722Z" fill="#40DDB6" fill-opacity="1.000000" fill-rule="nonzero"/>
	<path d="M85.0654 26.9644C84.8066 26.8396 83.9238 26.376 83.5049 25.8679C83.0146 25.2708 82.7031 24.7092 82.3994 23.8623C81.9805 22.6858 81.9893 22.6233 82.1416 22.4451C82.2305 22.3381 82.3467 22.2043 83.7461 22.356C85.4121 22.5254 87.6592 23.9336 88.541 25.9839C88.5859 26.0818 88.5771 26.189 88.541 26.2869C88.6035 26.4651 88.5322 26.6614 88.3545 26.7505C87.917 26.9731 87.2129 27.1516 86.5176 27.196C85.9834 27.2051 85.457 27.1516 85.0654 26.9644ZM83.665 23.0869C83.5674 23.0779 83.2021 23.0513 82.9082 23.0422C82.9609 23.2117 83.0322 23.4167 83.0947 23.6038C83.3711 24.3704 83.6387 24.8518 84.0752 25.3867C84.3164 25.6807 84.9043 26.0552 85.3857 26.2869C85.9121 26.5454 87.0791 26.4294 87.793 26.1531C87.0078 24.4417 85.0557 23.2295 83.665 23.0869Z" fill="#40DDB6" fill-opacity="1.000000" fill-rule="nonzero"/>
	<path d="M88.042 25.9663C87.9619 25.9038 87.8994 25.8147 87.8906 25.7078C87.6406 23.4883 88.8887 21.1528 90.2441 20.1812C91.376 19.3611 91.5625 19.4236 91.6787 19.468C91.9102 19.5483 91.9375 19.6284 92.1602 20.823C92.3203 21.7053 92.3291 22.3472 92.2051 23.1138C92.0977 23.7644 91.5625 24.6023 91.3936 24.843C90.8408 25.6631 89.2988 26.2336 88.4346 26.2781C88.2295 26.2871 88.0684 26.1533 88.042 25.9663ZM90.6807 20.7783C89.5488 21.5984 88.4521 23.613 88.6211 25.5027C89.3789 25.3867 90.4482 24.9055 90.7783 24.4153C91.082 23.9695 91.4111 23.3545 91.4736 22.98C91.5898 22.2937 91.5811 21.75 91.4297 20.9387C91.3848 20.7161 91.3486 20.5198 91.3223 20.3594C91.0635 20.5288 90.7607 20.7249 90.6807 20.7783Z" fill="#40DDB6" fill-opacity="1.000000" fill-rule="nonzero"/>
	<path d="M91.6162 70.2588C91.4375 70.116 91.3936 69.8577 91.5186 69.6614C91.4912 69.5457 91.5186 69.4119 91.5898 69.3049C93.167 67.1033 96.1982 66.0156 98.2031 66.2476C99.8975 66.4346 100.004 66.6309 100.084 66.7734C100.218 67.0229 100.209 67.1121 99.416 68.3867C98.8359 69.3137 98.3281 69.9021 97.5889 70.4814C96.9463 70.9895 95.6982 71.3193 95.458 71.3818C95.333 71.4175 95.1904 71.4353 95.0479 71.4443C93.8984 71.4978 92.3467 70.8469 91.6162 70.2588ZM98.1143 67.1389C96.4209 66.9517 93.7998 67.8787 92.418 69.7148C93.1943 70.2231 94.5576 70.6687 95.2441 70.4905C95.877 70.3301 96.6699 70.0447 97.0361 69.7595C97.6953 69.2424 98.1318 68.7344 98.6582 67.8965C98.7559 67.7449 98.8984 67.4954 99.0322 67.2815C98.667 67.219 98.2305 67.1567 98.1143 67.1389Z" fill="#40DDB6" fill-opacity="1.000000" fill-rule="nonzero"/>
	<path d="M49.4893 98.97C63.0205 98.97 75.6602 93.6128 85.0732 83.8789L83.5674 82.417C74.5547 91.741 62.459 96.8662 49.498 96.8662C23.3721 96.8662 2.1123 75.6069 2.1123 49.4805C2.1123 23.3542 23.3545 2.09473 49.4893 2.09473C56.3535 2.09473 62.9756 3.52979 69.1621 6.35547L70.0361 4.45679C63.5732 1.49756 56.6562 0 49.4893 0C22.1953 0 0 22.1953 0 49.4895C0 76.7834 22.1953 98.97 49.4893 98.97Z" fill="#6B77E5" fill-opacity="1.000000" fill-rule="nonzero"/>
	<path d="M18.9512 34.8616C18.2734 34.4871 17.7383 33.9612 17.3467 33.2837C16.9541 32.6062 16.749 31.8486 16.749 31.0107C16.749 30.1729 16.9453 29.415 17.3467 28.7466C17.7383 28.0781 18.2734 27.5522 18.9512 27.1777C19.6279 26.8035 20.3682 26.6162 21.1699 26.6162C21.9814 26.6162 22.7217 26.8035 23.3896 27.1777C24.0674 27.5522 24.5928 28.0781 24.9854 28.7466C25.3779 29.415 25.5645 30.1729 25.5645 31.0107C25.5645 31.8486 25.3691 32.6062 24.9766 33.2837C24.584 33.9612 24.0498 34.4783 23.3809 34.8616C22.7119 35.2358 21.9727 35.4231 21.1611 35.4231C20.3594 35.4231 19.6191 35.2358 18.9512 34.8616ZM22.8193 32.8291C23.2295 32.3745 23.4346 31.7683 23.4346 31.0195C23.4346 30.262 23.2295 29.6558 22.8193 29.2012C22.4092 28.7466 21.8564 28.5237 21.1699 28.5237C20.4746 28.5237 19.9219 28.7466 19.5127 29.2012C19.1025 29.647 18.8975 30.262 18.8975 31.0286C18.8975 31.7861 19.1025 32.3923 19.5127 32.8469C19.9219 33.3015 20.4746 33.5244 21.1699 33.5244C21.8564 33.5154 22.4092 33.2837 22.8193 32.8291Z" fill="#37393F" fill-opacity="1.000000" fill-rule="nonzero"/>
	<path d="M37.2422 35.343L35.4502 32.0984L34.9512 32.0984L34.9512 35.343L32.8564 35.343L32.8564 26.7412L36.3682 26.7412C37.0459 26.7412 37.625 26.8572 38.0977 27.0977C38.5791 27.3384 38.9355 27.6594 39.167 28.0693C39.3994 28.4795 39.5244 28.9429 39.5244 29.4509C39.5244 30.0215 39.3633 30.5295 39.043 30.9841C38.7217 31.4387 38.2402 31.7507 37.6162 31.938L39.6045 35.343L37.2422 35.343ZM34.9512 30.6099L36.2529 30.6099C36.6357 30.6099 36.9209 30.5117 37.1172 30.3245C37.3047 30.1375 37.4023 29.8699 37.4023 29.5312C37.4023 29.2014 37.3047 28.9519 37.1172 28.7556C36.9209 28.5686 36.6357 28.4705 36.2529 28.4705L34.9512 28.4705L34.9512 30.6099Z" fill="#37393F" fill-opacity="1.000000" fill-rule="nonzero"/>
	<path d="M52.6719 29.4592C52.5205 29.1741 52.2979 28.9512 52.0039 28.7998C51.709 28.6482 51.3711 28.5769 50.9785 28.5769C50.3008 28.5769 49.7568 28.7998 49.3477 29.2454C48.9375 29.6912 48.7324 30.2883 48.7324 31.0281C48.7324 31.8215 48.9463 32.4365 49.374 32.8823C49.8018 33.3279 50.3906 33.5508 51.1475 33.5508C51.665 33.5508 52.1016 33.417 52.4492 33.1584C52.8057 32.9001 53.0645 32.5256 53.2246 32.0354L50.5684 32.0354L50.5684 30.4934L55.123 30.4934L55.123 32.4456C54.9717 32.9714 54.7041 33.4526 54.3301 33.9072C53.9561 34.353 53.4834 34.7185 52.9131 34.9949C52.3428 35.2712 51.6914 35.4138 50.9785 35.4138C50.1318 35.4138 49.374 35.2266 48.7051 34.8523C48.0371 34.4778 47.5195 33.9607 47.1455 33.3013C46.7715 32.6416 46.584 31.8838 46.584 31.0371C46.584 30.1902 46.7715 29.4326 47.1455 28.7642C47.5195 28.0955 48.0371 27.5786 48.6963 27.2041C49.3564 26.8298 50.1143 26.6426 50.9609 26.6426C51.9854 26.6426 52.8594 26.8921 53.5635 27.3914C54.2676 27.8906 54.7402 28.5769 54.9629 29.4592L52.6719 29.4592Z" fill="#37393F" fill-opacity="1.000000" fill-rule="nonzero"/>
	<path d="M22.4541 49.8367L19.2451 49.8367L18.7275 51.3521L16.5352 51.3521L19.6465 42.7502L22.0703 42.7502L25.1816 51.3521L22.9619 51.3521L22.4541 49.8367ZM21.9189 48.2234L20.8496 45.0767L19.7979 48.2234L21.9189 48.2234Z" fill="#37393F" fill-opacity="1.000000" fill-rule="nonzero"/>
	<path d="M39.9512 51.3606L37.8564 51.3606L34.3535 46.0569L34.3535 51.3606L32.2588 51.3606L32.2588 42.7588L34.3535 42.7588L37.8564 48.0894L37.8564 42.7588L39.9512 42.7588L39.9512 51.3606Z" fill="#37393F" fill-opacity="1.000000" fill-rule="nonzero"/>
	<path d="M49.6855 42.7588L49.6855 51.3606L47.5908 51.3606L47.5908 42.7588L49.6855 42.7588Z" fill="#37393F" fill-opacity="1.000000" fill-rule="nonzero"/>
	<path d="M17.3018 60.7915C17.667 60.1228 18.1846 59.606 18.835 59.2314C19.4854 58.8572 20.2344 58.6699 21.0723 58.6699C22.0977 58.6699 22.9707 58.9373 23.6934 59.4812C24.4238 60.0159 24.9053 60.7559 25.1543 61.6829L22.8545 61.6829C22.6855 61.3262 22.4453 61.0498 22.124 60.8628C21.8125 60.6755 21.4551 60.5774 21.0547 60.5774C20.4121 60.5774 19.8867 60.8003 19.4854 61.2549C19.084 61.7007 18.8887 62.3066 18.8887 63.0554C18.8887 63.8042 19.084 64.4104 19.4854 64.8562C19.8867 65.3018 20.4121 65.5334 21.0547 65.5334C21.4551 65.5334 21.8125 65.4443 22.124 65.2483C22.4355 65.061 22.6768 64.7847 22.8545 64.4282L25.1543 64.4282C24.9141 65.3552 24.4238 66.0952 23.6934 66.6299C22.9619 67.1648 22.0889 67.4321 21.0723 67.4321C20.2432 67.4321 19.4941 67.2451 18.835 66.8706C18.1748 66.4963 17.667 65.9792 17.3018 65.3196C16.9365 64.6599 16.749 63.9023 16.749 63.0554C16.749 62.2175 16.9365 61.46 17.3018 60.7915Z" fill="#37393F" fill-opacity="1.000000" fill-rule="nonzero"/>
	<path d="M37.9199 65.855L34.7109 65.855L34.1934 67.3704L32.001 67.3704L35.1123 58.7686L37.5361 58.7686L40.6475 67.3704L38.4277 67.3704L37.9199 65.855ZM37.376 64.2417L36.3066 61.095L35.2549 64.2417L37.376 64.2417Z" fill="#37393F" fill-opacity="1.000000" fill-rule="nonzero"/>
	<path d="M49.8105 65.7568L52.5557 65.7568L52.5557 67.3701L47.7158 67.3701L47.7158 58.7683L49.8105 58.7683L49.8105 65.7568Z" fill="#37393F" fill-opacity="1.000000" fill-rule="nonzero"/>
	<path d="M18.8984 75.3044C19.0225 75.4561 19.085 75.6343 19.085 75.8303C19.085 75.9998 19.041 76.1423 18.9512 76.2761C18.8623 76.4099 18.7373 76.5168 18.5771 76.5881C18.417 76.6682 18.2207 76.7041 18.0068 76.7041L16.6963 76.7041L16.6963 73.4326L17.9443 73.4326C18.167 73.4326 18.3633 73.4683 18.5234 73.5486C18.6836 73.6287 18.8086 73.7268 18.8887 73.8516C18.9697 73.9763 19.0137 74.1189 19.0137 74.2795C19.0137 74.4666 18.96 74.627 18.8623 74.752C18.7646 74.8767 18.6309 74.9746 18.4609 75.0281C18.6309 75.0549 18.7734 75.144 18.8984 75.3044ZM17.2314 74.8054L17.8994 74.8054C18.0781 74.8054 18.2119 74.7698 18.3096 74.6895C18.4082 74.6091 18.4609 74.4934 18.4609 74.3418C18.4609 74.1902 18.4082 74.0833 18.3096 73.9941C18.2119 73.9141 18.0693 73.8694 17.8994 73.8694L17.2314 73.8694L17.2314 74.8054ZM18.3896 76.1335C18.4971 76.0444 18.541 75.9197 18.541 75.7681C18.541 75.6077 18.4883 75.4829 18.3721 75.3848C18.2646 75.2866 18.1133 75.2422 17.9355 75.2422L17.2314 75.2422L17.2314 76.2671L17.9531 76.2671C18.1406 76.2671 18.2832 76.2227 18.3896 76.1335Z" fill="#37393F" fill-opacity="1.000000" fill-rule="nonzero"/>
	<path d="M22.6768 76.5254C22.418 76.3828 22.2217 76.1865 22.0703 75.9282C21.9189 75.6697 21.8477 75.3843 21.8477 75.0635C21.8477 74.7427 21.9189 74.4573 22.0703 74.1987C22.2217 73.9404 22.418 73.7441 22.6768 73.6016C22.9355 73.459 23.2119 73.3877 23.5146 73.3877C23.8262 73.3877 24.1025 73.459 24.3613 73.6016C24.6201 73.7441 24.8164 73.9404 24.9678 74.1987C25.1191 74.4573 25.1904 74.7427 25.1904 75.0635C25.1904 75.3843 25.1191 75.6697 24.9678 75.9282C24.8164 76.1865 24.6201 76.3828 24.3613 76.5254C24.1025 76.668 23.8262 76.7393 23.5146 76.7393C23.2119 76.7393 22.9258 76.668 22.6768 76.5254ZM24.0938 76.1243C24.2637 76.0261 24.3975 75.8835 24.4951 75.6963C24.5928 75.5093 24.6377 75.3042 24.6377 75.0547C24.6377 74.814 24.5928 74.5999 24.4951 74.4216C24.3975 74.2434 24.2637 74.1008 24.0938 74.0027C23.9248 73.9048 23.7285 73.8601 23.5146 73.8601C23.3008 73.8601 23.1045 73.9048 22.9355 74.0027C22.7656 74.1008 22.6318 74.2434 22.5342 74.4216C22.4355 74.5999 22.3916 74.814 22.3916 75.0547C22.3916 75.2952 22.4355 75.5093 22.5342 75.6963C22.6318 75.8835 22.7656 76.0173 22.9355 76.1243C23.1045 76.2222 23.3008 76.2759 23.5146 76.2759C23.7285 76.2759 23.9248 76.2222 24.0938 76.1243Z" fill="#37393F" fill-opacity="1.000000" fill-rule="nonzero"/>
	<path d="M30.1826 73.4326L30.1826 73.8694L29.3086 73.8694L29.3086 76.7041L28.7744 76.7041L28.7744 73.8694L27.9004 73.8694L27.9004 73.4326L30.1826 73.4326Z" fill="#37393F" fill-opacity="1.000000" fill-rule="nonzero"/>
	<path d="M35.0576 76.0356L33.6846 76.0356L33.4531 76.7041L32.8916 76.7041L34.0684 73.4238L34.6924 73.4238L35.8691 76.7041L35.3076 76.7041L35.0576 76.0356ZM34.9062 75.5989L34.3711 74.0745L33.8369 75.5989L34.9062 75.5989Z" fill="#37393F" fill-opacity="1.000000" fill-rule="nonzero"/>
	<path d="M41.4131 76.7041L40.8789 76.7041L39.2656 74.2617L39.2656 76.7041L38.7305 76.7041L38.7305 73.4238L39.2656 73.4238L40.8789 75.8662L40.8789 73.4238L41.4131 73.4238L41.4131 76.7041Z" fill="#37393F" fill-opacity="1.000000" fill-rule="nonzero"/>
	<path d="M45.0156 73.4326L45.0156 76.7041L44.4805 76.7041L44.4805 73.4326L45.0156 73.4326Z" fill="#37393F" fill-opacity="1.000000" fill-rule="nonzero"/>
	<path d="M48.1162 74.1987C48.2676 73.9404 48.4639 73.7441 48.7227 73.6016C48.9814 73.459 49.2578 73.3877 49.5605 73.3877C49.9082 73.3877 50.2197 73.4768 50.4873 73.6462C50.7549 73.8157 50.96 74.0562 51.0762 74.3772L50.4346 74.3772C50.3535 74.2078 50.2295 74.074 50.0771 73.9939C49.9258 73.9048 49.7568 73.8691 49.5518 73.8691C49.3379 73.8691 49.1416 73.9136 48.9727 74.0117C48.8027 74.1096 48.6689 74.2524 48.5713 74.4307C48.4727 74.6089 48.4287 74.8228 48.4287 75.0635C48.4287 75.3042 48.4727 75.5181 48.5713 75.6963C48.6689 75.8748 48.8027 76.0173 48.9727 76.1152C49.1416 76.2134 49.3379 76.2668 49.5518 76.2668C49.748 76.2668 49.9258 76.2222 50.0771 76.1421C50.2295 76.053 50.3447 75.9282 50.4346 75.7588L51.0762 75.7588C50.9512 76.0708 50.7549 76.3115 50.4873 76.4807C50.2109 76.6501 49.9082 76.7393 49.5605 76.7393C49.249 76.7393 48.9727 76.668 48.7139 76.5254C48.4551 76.3828 48.2588 76.1865 48.1074 75.9282C47.9561 75.6697 47.8848 75.3843 47.8848 75.0635C47.8848 74.7427 47.9648 74.4485 48.1162 74.1987Z" fill="#37393F" fill-opacity="1.000000" fill-rule="nonzero"/>
	<path d="M56.0498 76.0356L54.6768 76.0356L54.4453 76.7041L53.8838 76.7041L55.0605 73.4238L55.6846 73.4238L56.8613 76.7041L56.2998 76.7041L56.0498 76.0356ZM55.8984 75.5989L55.3633 74.0745L54.8291 75.5989L55.8984 75.5989Z" fill="#37393F" fill-opacity="1.000000" fill-rule="nonzero"/>
	<path d="M60.249 76.2671L61.3545 76.2671L61.3545 76.7041L59.7139 76.7041L59.7139 73.4326L60.249 73.4326L60.249 76.2671Z" fill="#37393F" fill-opacity="1.000000" fill-rule="nonzero"/>
	<path d="M55.0791 44.6499L55.0791 45.6125L56.2109 45.6125L56.2109 46.0493L55.0791 46.0493L55.0791 47.0566L56.3535 47.0566L56.3535 47.4934L54.5439 47.4934L54.5439 44.2131L56.3535 44.2131L56.3535 44.6499L55.0791 44.6499Z" fill="#37393F" fill-opacity="1.000000" fill-rule="nonzero"/>
	<path d="M58.9111 47.4124C58.7324 47.3323 58.5996 47.2253 58.501 47.0828C58.4033 46.9399 58.3496 46.7795 58.3496 46.5923L58.9199 46.5923C58.9287 46.7351 58.9912 46.8508 59.0898 46.9399C59.1875 47.0291 59.3301 47.0737 59.5088 47.0737C59.6953 47.0737 59.8379 47.0291 59.9453 46.9399C60.0518 46.8508 60.0967 46.7351 60.0967 46.5923C60.0967 46.4854 60.0615 46.3962 59.999 46.325C59.9365 46.2537 59.8564 46.2002 59.7578 46.1646C59.6602 46.1289 59.5264 46.0842 59.3564 46.0398C59.1426 45.9863 58.9736 45.9238 58.8398 45.8704C58.7061 45.8169 58.5898 45.7188 58.501 45.603C58.4033 45.4783 58.3584 45.3176 58.3584 45.1128C58.3584 44.9255 58.4033 44.7561 58.501 44.6135C58.5996 44.4709 58.7236 44.364 58.8936 44.2927C59.0625 44.2214 59.2588 44.1768 59.4814 44.1768C59.8027 44.1768 60.0615 44.2571 60.2656 44.4175C60.4707 44.5779 60.5781 44.7917 60.6045 45.0681L60.0078 45.0681C59.999 44.9521 59.9453 44.8452 59.8379 44.7651C59.7314 44.6848 59.5977 44.6404 59.4277 44.6404C59.2764 44.6404 59.1514 44.676 59.0537 44.7561C58.9561 44.8364 58.9111 44.9434 58.9111 45.095C58.9111 45.1929 58.9375 45.282 59 45.3445C59.0625 45.4067 59.1426 45.4604 59.2324 45.4961C59.3301 45.5317 59.4551 45.5762 59.6152 45.6208C59.8291 45.6831 60.0078 45.7366 60.1416 45.7991C60.2754 45.8616 60.3906 45.9507 60.4893 46.0754C60.5869 46.2002 60.6318 46.3606 60.6318 46.5745C60.6318 46.7439 60.5869 46.8955 60.498 47.0471C60.4092 47.1985 60.2754 47.3145 60.1055 47.4036C59.9365 47.4927 59.7314 47.5374 59.499 47.5374C59.2852 47.5283 59.0898 47.4839 58.9111 47.4124Z" fill="#37393F" fill-opacity="1.000000" fill-rule="nonzero"/>
	<path d="M64.8037 44.2219L64.8037 44.6587L63.9297 44.6587L63.9297 47.4934L63.3955 47.4934L63.3955 44.6587L62.5215 44.6587L62.5215 44.2219L64.8037 44.2219Z" fill="#37393F" fill-opacity="1.000000" fill-rule="nonzero"/>
	<path d="M54.7764 52.4131C55.0791 52.1545 55.3105 51.9407 55.4893 51.7712C55.667 51.6018 55.8105 51.4236 55.9258 51.2454C56.042 51.0671 56.1045 50.8799 56.1045 50.7017C56.1045 50.5144 56.0596 50.3628 55.9707 50.2559C55.8818 50.1489 55.7393 50.0955 55.5518 50.0955C55.3643 50.0955 55.2217 50.158 55.124 50.2737C55.0166 50.3896 54.9629 50.55 54.9629 50.7461L54.4463 50.7461C54.4551 50.3896 54.5625 50.1133 54.7676 49.926C54.9727 49.739 55.2305 49.6409 55.5518 49.6409C55.8906 49.6409 56.1582 49.739 56.3535 49.926C56.5498 50.1133 56.6484 50.3628 56.6484 50.6838C56.6484 50.9067 56.5947 51.1294 56.4785 51.3345C56.3623 51.5396 56.2295 51.7268 56.0684 51.896C55.9082 52.0654 55.7119 52.2527 55.4629 52.4666L55.248 52.6538L56.7373 52.6538L56.7373 53.0994L54.4463 53.0994L54.4463 52.7073L54.7764 52.4131Z" fill="#37393F" fill-opacity="1.000000" fill-rule="nonzero"/>
	<path d="M58.8848 50.1133C59.0723 49.8101 59.3838 49.6497 59.8389 49.6497C60.293 49.6497 60.6055 49.8013 60.7832 50.1133C60.9707 50.4163 61.0596 50.844 61.0596 51.3879C61.0596 51.9404 60.9707 52.3684 60.7832 52.6804C60.5957 52.9924 60.2842 53.1438 59.8389 53.1438C59.3926 53.1438 59.0723 52.9924 58.8848 52.6804C58.6973 52.3684 58.6084 51.9404 58.6084 51.3879C58.6084 50.844 58.6973 50.4163 58.8848 50.1133ZM60.4805 50.7371C60.4443 50.5588 60.3818 50.4163 60.2842 50.3093C60.1865 50.2024 60.0342 50.1399 59.8389 50.1399C59.6426 50.1399 59.4912 50.1934 59.3926 50.3093C59.2949 50.425 59.2236 50.5679 59.1963 50.7371C59.1699 50.9065 59.1436 51.1294 59.1436 51.3789C59.1436 51.6462 59.1611 51.8604 59.1875 52.0474C59.2148 52.2346 59.2861 52.3684 59.3838 52.4841C59.4824 52.5913 59.6338 52.6536 59.8301 52.6536C60.0254 52.6536 60.1768 52.6001 60.2754 52.4841C60.373 52.3772 60.4443 52.2258 60.4717 52.0474C60.498 51.8691 60.5156 51.6462 60.5156 51.3789C60.5244 51.1294 60.5068 50.9155 60.4805 50.7371Z" fill="#37393F" fill-opacity="1.000000" fill-rule="nonzero"/>
	<path d="M63.333 52.4131C63.6357 52.1545 63.8672 51.9407 64.0459 51.7712C64.2236 51.6018 64.3672 51.4236 64.4824 51.2454C64.5986 51.0671 64.6611 50.8799 64.6611 50.7017C64.6611 50.5144 64.6162 50.3628 64.5273 50.2559C64.4385 50.1489 64.2959 50.0955 64.1084 50.0955C63.9209 50.0955 63.7783 50.158 63.6807 50.2737C63.5732 50.3896 63.5195 50.55 63.5195 50.7461L63.0029 50.7461C63.0117 50.3896 63.1191 50.1133 63.3242 49.926C63.5293 49.739 63.7871 49.6409 64.1084 49.6409C64.4473 49.6409 64.7148 49.739 64.9102 49.926C65.1064 50.1133 65.2051 50.3628 65.2051 50.6838C65.2051 50.9067 65.1514 51.1294 65.0352 51.3345C64.9189 51.5396 64.7861 51.7268 64.625 51.896C64.4648 52.0654 64.2686 52.2527 64.0195 52.4666L63.8047 52.6538L65.2939 52.6538L65.2939 53.0994L63.0029 53.0994L63.0029 52.7073L63.333 52.4131Z" fill="#37393F" fill-opacity="1.000000" fill-rule="nonzero"/>
	<path d="M67.4512 50.1133C67.6387 49.8101 67.9502 49.6497 68.4053 49.6497C68.8594 49.6497 69.1719 49.8013 69.3496 50.1133C69.5371 50.4163 69.626 50.844 69.626 51.3879C69.626 51.9404 69.5371 52.3684 69.3496 52.6804C69.1621 52.9924 68.8506 53.1438 68.4053 53.1438C67.959 53.1438 67.6387 52.9924 67.4512 52.6804C67.2637 52.3684 67.1748 51.9404 67.1748 51.3879C67.1748 50.844 67.2637 50.4163 67.4512 50.1133ZM69.0469 50.7371C69.0107 50.5588 68.9482 50.4163 68.8506 50.3093C68.7529 50.2024 68.6006 50.1399 68.4053 50.1399C68.209 50.1399 68.0576 50.1934 67.959 50.3093C67.8613 50.425 67.79 50.5679 67.7627 50.7371C67.7363 50.9065 67.71 51.1294 67.71 51.3789C67.71 51.6462 67.7275 51.8604 67.7539 52.0474C67.7812 52.2346 67.8525 52.3684 67.9502 52.4841C68.0488 52.5913 68.2002 52.6536 68.3965 52.6536C68.5918 52.6536 68.7432 52.6001 68.8418 52.4841C68.9395 52.3772 69.0107 52.2258 69.0381 52.0474C69.0645 51.8691 69.082 51.6462 69.082 51.3789C69.0908 51.1294 69.0732 50.9155 69.0469 50.7371Z" fill="#37393F" fill-opacity="1.000000" fill-rule="nonzero"/>
</svg>
