<svg width="170.449219" height="44.180908" viewBox="0 0 170.449 44.1809" fill="none" xmlns="http://www.w3.org/2000/svg" xmlns:xlink="http://www.w3.org/1999/xlink">
	<desc>
			Created with Pixso.
	</desc>
	<defs/>
	<path d="M36.3027 44.1809L8.32422 44.1809C3.72656 44.1809 0 40.4917 0 35.9399L0 8.24097C0 3.68896 3.72656 0 8.32422 0L36.3027 0C40.9004 0 44.627 3.68896 44.627 8.24097L44.627 35.9399C44.627 40.4917 40.9004 44.1809 36.3027 44.1809Z" fill="#40DDB6" fill-opacity="1.000000" fill-rule="nonzero"/>
	<path d="M30.3525 22.4968C31.1484 23.4849 31.5527 24.6353 31.5527 25.9358C31.5527 27.8491 30.9082 29.3499 29.6201 30.4126C28.332 31.4756 26.4873 32.0259 24.0879 32.0259L13.6035 32.0259L13.6035 9.7041L23.835 9.7041C26.1338 9.7041 27.9023 10.2043 29.1533 11.1921C30.4033 12.1802 31.0352 13.5933 31.0352 15.4189C31.0352 16.7695 30.6689 17.8826 29.9482 18.783C29.2285 19.6833 28.2812 20.2585 27.1064 20.5337C28.4834 20.8586 29.5566 21.509 30.3525 22.4968ZM19.0479 18.833L22.6221 18.833C24.5176 18.833 25.4648 18.0325 25.4648 16.4319C25.4648 14.8313 24.4922 14.031 22.5596 14.031L19.0479 14.031L19.0479 18.833ZM25.9697 25.1855C25.9697 24.3853 25.7041 23.76 25.1738 23.3098C24.6436 22.8596 23.8857 22.6345 22.9131 22.6345L19.0605 22.6345L19.0605 27.6489L22.9512 27.6489C24.959 27.6365 25.9697 26.8237 25.9697 25.1855Z" fill="#FFFFFF" fill-opacity="1.000000" fill-rule="nonzero"/>
	<path d="M70.4834 32.0259L65.6074 23.5974L64.3701 23.5974L64.3701 32.0259L58.9131 32.0259L58.9131 9.7041L68.2227 9.7041C70.0039 9.7041 71.5195 10.0042 72.7441 10.6169C73.9824 11.2297 74.9043 12.0676 75.5234 13.1306C76.1426 14.1934 76.4453 15.4065 76.4453 16.782C76.4453 18.4077 75.9912 19.7832 75.0938 20.9211C74.1846 22.0593 72.8838 22.8345 71.1533 23.2598L76.5088 32.0383L70.4834 32.0383L70.4834 32.0259ZM64.3701 19.9084L67.7422 19.9084C68.8291 19.9084 69.625 19.6707 70.1299 19.1956C70.6348 18.7205 70.9004 18.02 70.9004 17.0947C70.9004 16.2068 70.6348 15.519 70.1172 15.0063C69.5996 14.5061 68.8037 14.2434 67.7422 14.2434L64.3701 14.2434L64.3701 19.9084Z" fill="#37393F" fill-opacity="1.000000" fill-rule="nonzero"/>
	<path d="M101.128 27.9614L92.6777 27.9614L91.2754 32.0381L85.541 32.0381L93.8018 9.87891L100.08 9.87891L108.341 32.0381L102.543 32.0381L101.128 27.9614ZM99.7266 23.8472L96.9219 15.6438L94.0801 23.8472L99.7266 23.8472Z" fill="#37393F" fill-opacity="1.000000" fill-rule="nonzero"/>
	<path d="M138.44 32.0259L132.984 32.0259L123.864 18.3201L123.864 32.0259L118.407 32.0259L118.407 9.7041L123.864 9.7041L132.984 23.5349L132.984 9.7041L138.44 9.7041L138.44 32.0259Z" fill="#37393F" fill-opacity="1.000000" fill-rule="nonzero"/>
	<path d="M169.034 26.6487C168.087 28.3367 166.723 29.6624 164.955 30.6128C163.174 31.563 161.09 32.0383 158.689 32.0383L150.176 32.0383L150.176 9.71655L158.689 9.71655C161.114 9.71655 163.212 10.1792 164.967 11.1047C166.735 12.03 168.087 13.3306 169.034 15.0188C169.982 16.707 170.449 18.6328 170.449 20.8337C170.449 23.0095 169.97 24.9478 169.034 26.6487ZM163.161 25.5232C164.336 24.4102 164.93 22.8345 164.93 20.821C164.93 18.7954 164.336 17.2322 163.161 16.1191C161.986 15.0063 160.331 14.4436 158.197 14.4436L155.62 14.4436L155.62 27.1987L158.197 27.1987C160.331 27.1987 161.986 26.6484 163.161 25.5232Z" fill="#37393F" fill-opacity="1.000000" fill-rule="nonzero"/>
</svg>
