<svg width="150.963867" height="45.509521" viewBox="0 0 150.964 45.5095" fill="none" xmlns="http://www.w3.org/2000/svg" xmlns:xlink="http://www.w3.org/1999/xlink">
	<desc>
			Created with Pixso.
	</desc>
	<defs/>
	<path d="M21.1182 9.11865L22.2344 8.88281C22.5176 8.88281 22.7559 8.94189 22.9199 9.05981C23.084 9.17773 23.1729 9.29565 23.1729 9.39893C23.1729 9.50195 23.1436 9.66431 23.0986 9.85596C23.0537 10.0476 22.6367 12.0232 21.8623 15.7532C21.0879 19.4834 20.5225 22.2698 20.165 24.0979C21.8926 21.7686 23.918 18.9082 26.2256 15.5027C28.5342 12.0969 29.8896 9.84106 30.2764 8.7207C30.3955 8.36694 30.5596 8.10156 30.7529 7.90967C30.9463 7.71802 31.125 7.6001 31.2744 7.5708C31.4229 7.54126 31.6611 7.51172 31.9746 7.51172C32.2871 7.51172 32.6592 7.58545 33.0908 7.71802C33.5234 7.85083 33.7461 8.07202 33.7461 8.39624C33.7461 8.98608 32.8525 10.7109 31.0811 13.5417C29.3086 16.3726 27.2686 19.3801 24.9746 22.5647C22.6816 25.7493 20.7754 28.2703 19.2412 30.1279C18.9736 30.4524 18.6309 30.6292 18.2432 30.6292C17.8564 30.6292 17.4395 30.5554 17.0078 30.4229C16.5752 30.29 16.3525 30.0542 16.3525 29.7004C16.3525 28.5947 17.335 23.2576 19.3008 13.7188C17.6182 15.8711 15.5781 18.8789 13.1807 22.7268C10.6787 26.7075 9.26367 29.1843 8.93555 30.1279C8.75684 30.7029 8.54883 31.042 8.31055 31.1306C8.14648 31.2043 7.96777 31.2336 7.78906 31.2336L6.58301 31.3665C6.34473 31.3665 6.13574 31.3074 5.92773 31.1748C5.73438 31.042 5.62988 30.9094 5.62988 30.762C5.62988 30.3638 6.19531 29.155 7.3125 27.1499C8.42969 25.1448 9.75488 22.9626 11.2588 20.6038C12.7637 18.2449 14.3271 15.9597 15.9648 13.7334C17.6035 11.5071 18.8691 10.0034 19.7627 9.25146C19.9414 9.08936 20.1494 9.01562 20.3877 9.01562L21.1182 9.11865Z" fill="#37393F" fill-opacity="1.000000" fill-rule="nonzero"/>
	<path d="M39.0176 19.1147C39.792 19.1147 40.1797 19.3801 40.1797 19.8962C40.1797 20.1763 40.1201 20.3828 39.9854 20.5154C39.8516 20.6482 39.5684 21.0757 39.1367 21.8276C38.7051 22.5647 38.2285 23.5083 37.707 24.6731C37.1865 25.823 36.8438 26.8108 36.6943 27.6218C36.665 27.7249 36.6504 27.8577 36.6504 28.0493C36.6504 28.6096 36.7988 28.875 37.1113 28.875C37.4248 28.875 37.7812 28.7275 38.1982 28.4473C38.6152 28.1526 38.9883 27.8577 39.3154 27.5186C39.6436 27.1941 39.9561 26.855 40.2686 26.5159C40.5811 26.1768 40.7598 25.9705 40.8193 25.9263C40.8789 25.8821 40.9688 25.8525 41.0879 25.8525C41.2812 25.8525 41.4004 26 41.4453 26.2949C41.4902 26.5896 41.5049 26.8845 41.5049 27.209C41.5049 27.5332 41.4746 27.7397 41.415 27.8577C41.1172 28.4326 40.4775 29.1255 39.4648 29.9365C38.4668 30.7473 37.5439 31.1453 36.7246 31.1453C35.9053 31.1453 35.2949 30.8948 34.9229 30.4082C34.5498 29.9216 34.3418 29.3613 34.3418 28.7717C34.3418 28.1672 34.4463 27.6511 34.6543 27.1941C33.8057 28.2852 32.8379 29.1992 31.75 29.9658C30.6484 30.7178 29.7695 31.1011 29.0693 31.1011C28.3701 31.1011 27.8184 30.8948 27.3721 30.4819C26.8066 29.9658 26.5381 29.2583 26.5381 28.3442C26.5381 27.4302 26.7461 26.5159 27.1631 25.5872C27.5801 24.6731 28.1162 23.8179 28.7871 23.0659C29.457 22.2993 30.2012 21.6064 31.0059 20.9873C32.6885 19.675 34.252 19.0264 35.6816 19.0264C36.2334 19.0264 36.6797 19.1147 37.0225 19.2917C37.3652 19.4688 37.5879 19.7046 37.6777 19.97C37.916 19.6013 38.124 19.3801 38.3027 19.2771C38.4365 19.1589 38.6904 19.1147 39.0176 19.1147ZM36.9922 20.7957C35.25 20.7957 33.4482 21.7539 31.5869 23.6704C30.9316 24.3635 30.3203 25.1743 29.7549 26.1326C29.1885 27.0911 28.9209 27.7397 28.9209 28.0935C28.9209 28.4473 29.0254 28.6243 29.2334 28.6243C29.5166 28.6243 30.3057 28.064 31.6162 26.9583C32.9268 25.8525 33.791 25.0269 34.208 24.4961C34.6846 23.9065 35.6074 22.668 36.9922 20.7957Z" fill="#37393F" fill-opacity="1.000000" fill-rule="nonzero"/>
	<path d="M50.6035 11.124L51.2295 11.2715C51.3184 11.2715 51.4082 11.3157 51.4678 11.4041C51.542 11.4927 51.5713 11.5811 51.5713 11.6548C51.5713 11.7285 51.4678 11.9497 51.2441 12.3035C51.0205 12.6572 50.7822 13.0554 50.4844 13.4978C50.1865 13.9399 50.0381 14.1907 50.0234 14.2349C50.8125 14.1758 51.3779 14.1465 51.7061 14.1465C52.0332 14.1465 52.2568 14.1758 52.3906 14.2202C52.5098 14.2644 52.6592 14.397 52.8076 14.6035C52.9717 14.8098 53.1055 14.9719 53.2393 15.0752C53.374 15.1785 53.4336 15.3406 53.4336 15.5471C53.4336 15.7534 53.2988 15.9451 53.0459 16.0779C52.793 16.2251 52.5098 16.3137 52.2119 16.3433C49.8447 16.5791 48.5488 16.697 48.3105 16.7117C47.4912 17.9648 46.3301 19.9111 44.8555 22.55C43.3809 25.1892 42.5918 26.8552 42.502 27.5186C42.458 27.8281 42.4424 28.0642 42.4424 28.2559C42.4424 28.6538 42.6514 28.8455 43.0684 28.8455C43.4854 28.8455 43.9473 28.6833 44.4531 28.3738C44.96 28.0493 45.4365 27.7102 45.8535 27.3416C47 26.3391 47.6104 25.823 47.6846 25.823C47.9531 25.823 48.0869 26.2803 48.0869 27.1794C48.0869 27.666 47.8633 28.1084 47.4023 28.5063C46.374 29.3762 45.5107 30.0398 44.8105 30.4819C44.1104 30.9243 43.4111 31.1455 42.6963 31.1455C42.5469 31.1455 42.3984 31.1306 42.2637 31.1013C41.4453 30.9539 40.8496 30.6589 40.4766 30.2166C40.0898 29.7744 39.9111 29.1846 39.9111 28.4475C39.9111 27.7102 40.1348 26.7961 40.5811 25.7346C41.0283 24.6731 41.5791 23.5378 42.249 22.3438C43.3516 20.3828 44.4531 18.5547 45.54 16.8445L44.96 16.9182C43.7832 17.0508 43.0977 17.1099 42.9043 17.1099L42.7705 17.1099C42.4727 17.1099 42.1895 17.0508 41.9219 16.9329C41.6533 16.8149 41.5049 16.6675 41.5049 16.5054C41.5049 16.3284 41.5791 16.1663 41.7275 16.0042C41.877 15.8418 41.9658 15.7092 41.9961 15.6208C42.0703 15.3997 42.3389 15.1489 42.7998 14.8835C43.2617 14.6182 43.6045 14.4707 43.8428 14.4561C44.0811 14.4412 44.3047 14.4265 44.5273 14.4119C44.751 14.397 44.9893 14.397 45.2578 14.3823C45.5254 14.3674 45.7344 14.3677 45.8828 14.3528L47.2529 14.2939C48.1016 13.0259 48.6973 12.2002 49.0107 11.8464C49.3379 11.4778 49.5166 11.2861 49.5615 11.2566C49.6064 11.2273 49.71 11.1978 49.874 11.1978L50.6035 11.124Z" fill="#37393F" fill-opacity="1.000000" fill-rule="nonzero"/>
	<path d="M59.7627 25.8523C59.9561 25.8523 60.0752 25.9998 60.1201 26.2944C60.1641 26.5894 60.1797 26.8843 60.1797 27.2085C60.1797 27.533 60.1494 27.7393 60.0898 27.8574C59.792 28.4175 59.1514 29.1106 58.1543 29.9214C57.1562 30.7322 56.2031 31.145 55.3096 31.145C54.7588 31.145 54.252 30.9829 53.7754 30.6584C53.3145 30.3342 53.0762 29.7593 53.0762 28.9482C53.0762 28.1375 53.2988 27.3267 53.7314 26.5452C51.1992 29.6855 49.2334 31.2483 47.7891 31.2483C47.2227 31.2483 46.7617 31.042 46.4043 30.6438C46.0469 30.2458 45.8828 29.833 45.8828 29.3906C45.8828 28.9631 45.9424 28.5208 46.0615 28.0637C46.1807 27.6067 46.3145 27.1938 46.4482 26.8252C46.583 26.4568 46.791 26.0144 47.0596 25.4836C47.3271 24.9529 47.5361 24.5696 47.6553 24.3188C47.7744 24.0684 47.9971 23.7144 48.2949 23.228C48.5928 22.7415 48.9658 22.0779 49.4424 21.2522C49.9189 20.4268 50.3057 19.8074 50.6182 19.4094C50.9316 19.0112 51.2295 18.8049 51.5273 18.8049C51.8252 18.8049 52.0781 18.9229 52.3018 19.1587C52.5244 19.3945 52.6436 19.6011 52.6436 19.7485C52.6436 19.896 52.3018 20.5742 51.6162 21.783C49.6055 25.3953 48.5928 27.4888 48.5928 28.0933C48.5928 28.2407 48.6523 28.3145 48.7568 28.3145C49.248 28.3145 50.4697 27.2676 52.4053 25.1741C54.3418 23.0806 55.4736 21.7388 55.7861 21.1492C56.0986 20.5593 56.3818 20.0581 56.6797 19.6599C56.9629 19.262 57.1855 19.0112 57.335 18.9229C57.7666 18.6428 58.333 18.4954 59.0322 18.4658C59.1514 18.4658 59.2266 18.4658 59.2861 18.4805C59.3457 18.4954 59.4199 18.5837 59.4941 18.7312C59.5684 18.8787 59.6133 19.0112 59.6133 19.1145C59.5244 19.3945 59.1221 20.1465 58.3926 21.3704C57.6777 22.594 57.2754 23.2869 57.2012 23.4343C55.9951 25.8965 55.3994 27.5034 55.3994 28.2407C55.3994 28.6682 55.5625 28.8745 55.8906 28.8745C56.4863 28.8008 57.2012 28.3291 58.0352 27.4739C58.3477 27.1643 58.6455 26.8401 58.9434 26.5156C59.2412 26.1914 59.4346 25.9998 59.4941 25.9553C59.5684 25.8816 59.6582 25.8523 59.7627 25.8523Z" fill="#37393F" fill-opacity="1.000000" fill-rule="nonzero"/>
	<path d="M64.1855 22.3584C66.584 19.6604 68.6387 18.304 70.3213 18.304C70.7383 18.304 71.0811 18.4219 71.3486 18.6726C71.6172 18.9231 71.751 19.2329 71.751 19.6309C71.751 20.0291 71.4678 20.6777 70.9023 21.6064C70.3359 22.5205 69.8154 23.302 69.3389 23.936C69.085 24.2603 68.8027 24.4224 68.4746 24.4224C68.1621 24.4224 67.9092 24.3044 67.7305 24.0686C67.5518 23.8328 67.4619 23.5674 67.4619 23.2578C67.4619 22.5647 67.835 21.7686 68.5938 20.8989L68.5645 20.8694C68.2217 20.8989 67.4023 21.5623 66.0625 22.8301C64.7373 24.1128 63.6055 25.2629 62.667 26.2654C61.7432 27.2827 60.7305 28.5063 59.6289 29.9661C59.3164 30.3936 59.0479 30.6147 58.8242 30.6147C58.6016 30.6147 58.3184 30.541 57.9609 30.4082C57.6035 30.2756 57.3799 30.1724 57.3057 30.1133C57.2314 30.0544 57.1865 29.9512 57.1865 29.8037C57.1865 29.6711 57.2314 29.4941 57.3057 29.3171C57.3799 29.1255 57.5439 28.8601 57.752 28.521C57.9609 28.1821 58.3037 27.6218 58.75 26.8552C59.1973 26.0884 59.8818 24.9238 60.8203 23.3757C61.7588 21.8276 62.3096 20.884 62.5029 20.5598C62.8906 19.8962 63.2031 19.4097 63.4561 19.115C63.918 18.5398 64.6924 18.2598 65.7793 18.2598C66.0176 18.2598 66.1514 18.4072 66.1514 18.7168C66.1514 19.1885 65.7051 20.0879 64.8262 21.3853L64.1855 22.3584Z" fill="#37393F" fill-opacity="1.000000" fill-rule="nonzero"/>
	<path d="M80.6113 19.292C80.6113 19.9556 80.3438 20.5452 79.793 21.0464C79.2412 21.5479 78.6309 21.7983 77.9307 21.7983C77.708 21.7983 77.5586 21.7395 77.4844 21.6362C77.4102 21.533 77.3799 21.3855 77.3799 21.2234C77.3799 21.0613 77.3945 20.8843 77.4395 20.7222C77.0674 20.8401 76.665 21.0317 76.2188 21.2825C75.7715 21.533 75.2207 21.9016 74.5654 22.4028C73.9102 22.9041 73.582 23.2581 73.582 23.5085C73.582 23.5823 73.7012 23.6265 73.9395 23.6265C74.1777 23.6265 74.5508 23.5381 75.042 23.376C75.5332 23.2136 75.8906 23.1252 76.084 23.1252C76.2783 23.1252 76.4121 23.1401 76.4717 23.1548C76.6055 23.2285 76.7393 23.376 76.9033 23.6118C77.0527 23.8477 77.127 24.0393 77.127 24.1721C77.127 24.3047 76.9932 24.4817 76.7246 24.7029C76.457 24.9241 76.1592 25.0862 75.8311 25.2041C75.4883 25.322 75.2656 25.4104 75.1611 25.4695C73.0166 26.6636 71.9443 27.4746 71.9443 27.9167C71.9443 28.6982 72.6143 29.0964 73.9697 29.0964C74.833 29.0964 75.7119 28.8311 76.5762 28.2854C77.3203 27.8284 77.9902 27.3567 78.5859 26.8701C79.1816 26.3982 79.5547 26.1035 79.7178 25.9856C79.8818 25.8674 80.001 25.8232 80.0752 25.8232C80.3438 25.8232 80.4775 26.1182 80.4775 26.708C80.4775 27.2976 80.4482 27.6809 80.373 27.8579C80.2988 28.0496 80.1055 28.2708 79.7627 28.5508C77.5889 30.3052 75.5186 31.1899 73.582 31.1899C72.54 31.1899 71.7207 31.0425 71.0957 30.7622C69.9482 30.2463 69.3828 29.4648 69.3828 28.4033C69.3828 27.0176 70.3506 25.9561 72.3018 25.2483C71.9141 25.0713 71.6611 24.865 71.5566 24.585C71.4375 24.3196 71.3936 23.8918 71.3936 23.3022C71.3936 22.7124 71.6758 22.0933 72.2275 21.4297C72.7783 20.7664 73.4629 20.2209 74.2676 19.8081C76.0547 18.8496 77.6631 18.3779 79.0625 18.3779C79.4053 18.3779 79.7334 18.4517 80.0908 18.6138C80.4473 18.7759 80.6113 18.9971 80.6113 19.292Z" fill="#37393F" fill-opacity="1.000000" fill-rule="nonzero"/>
	<path d="M115.37 9.03027L115.563 9.03027C115.623 9.03027 115.668 9.03027 115.683 9.04517C115.697 9.05981 115.713 9.05981 115.742 9.07446C115.772 9.07446 115.787 9.08936 115.816 9.1189C115.861 9.16309 115.936 9.20728 116.025 9.25146C116.145 9.33984 116.204 9.44312 116.204 9.56104C116.204 9.67896 116.085 9.92969 115.847 10.313C115.608 10.6963 114.998 11.6252 114 13.1289C111.722 16.5789 109.682 19.793 107.879 22.7417C104.767 27.8723 103.188 30.4524 103.158 30.4819C103.129 30.5112 103.113 30.5408 103.099 30.5703C103.084 30.6294 103.054 30.6587 102.979 30.6587L102.771 30.6145L102.354 30.7178L102.116 30.6736L101.862 30.7178L101.773 30.7178L100.925 30.8357C100.418 30.8357 100.165 30.6587 100.165 30.3196C100.165 30.1721 100.21 29.9954 100.299 29.7888C100.611 29.0518 102.205 26.3833 105.064 21.7539C103.188 21.7981 101.326 21.8276 99.4951 21.8276L96.2188 21.8127C95.6826 22.668 94.9375 23.877 94 25.4543C91.9746 28.8896 90.9023 30.6145 90.7676 30.644C90.6338 30.6736 90.5293 30.7029 90.4404 30.7029C90.3506 30.7029 90.2764 30.6587 90.2168 30.5557C90.1426 30.467 90.0977 30.4082 90.0684 30.4082C90.0381 30.4082 89.9932 30.4229 89.9043 30.467C89.8301 30.5112 89.7109 30.5261 89.5469 30.5261L89.1895 30.5112L89.0557 30.4229C89.04 30.4229 89.0254 30.4375 89.0107 30.467C88.9961 30.4966 88.9512 30.5112 88.8916 30.5112C88.46 30.5112 88.2363 30.3345 88.2363 29.9658C88.2363 29.73 88.3252 29.4055 88.4893 29.0076C88.668 28.6094 88.8916 28.1819 89.1748 27.7249C89.457 27.2678 90.1719 26.1621 91.3486 24.437C92.5107 22.7122 93.0908 21.8423 93.0908 21.8276C92.8975 21.8127 92.6738 21.8127 92.4209 21.7981C91.8994 21.7981 91.542 21.7832 91.3193 21.739C90.7383 21.6357 90.3359 21.1641 90.1279 20.3237C90.0088 19.9109 89.9639 19.6455 89.9785 19.5129C89.9785 19.2476 90.0977 19.1001 90.3359 19.1001L90.7383 19.2031C90.9463 19.218 91.4229 19.2327 92.1973 19.2769C92.9717 19.321 93.5234 19.3359 93.8652 19.3359L94.7295 19.3064C96.0547 17.2571 97.6338 14.9277 99.4795 12.3328C98.1396 13.4238 96.6504 13.9692 95.0127 13.9692C94.2383 13.9692 93.5674 13.7925 93.0166 13.4238C92.4512 13.0552 92.1826 12.5835 92.1826 12.0232C92.1826 11.4629 92.3916 11.0208 92.8232 10.6816C93.2549 10.3572 93.6572 10.1951 94.0439 10.1951C94.4316 10.1951 94.625 10.2539 94.625 10.3721C94.625 10.4163 94.5654 10.4604 94.4609 10.5046C94.3574 10.5637 94.2979 10.6079 94.2979 10.6521C94.2979 10.8142 94.4766 10.9617 94.834 11.0796C95.1914 11.1975 95.5928 11.2712 96.04 11.2712C96.4863 11.2712 97.0225 11.1387 97.6777 10.8879C98.333 10.6375 99.0029 10.2983 99.7031 9.90015C100.687 9.33984 101.461 8.86816 102.026 8.49951C102.354 8.3374 102.652 8.26367 102.95 8.26367C103.248 8.26367 103.441 8.29321 103.575 8.36694C103.709 8.42578 103.799 8.49951 103.858 8.55859C103.918 8.61743 103.992 8.70605 104.052 8.80908C104.126 8.91235 104.186 9.00073 104.261 9.04517C104.32 9.104 104.364 9.16309 104.364 9.23682C104.364 9.31055 104.32 9.41357 104.245 9.57593C104.171 9.72314 103.784 10.3425 103.084 11.4187C102.384 12.4951 101.476 13.8662 100.373 15.5322C99.2715 17.1982 98.4678 18.4219 97.9609 19.218C100.687 19.218 103.62 19.1738 106.777 19.0706C110.619 13.0701 112.645 9.92969 112.854 9.63477C113.062 9.33984 113.255 9.14819 113.434 9.05981C113.612 8.97144 113.821 8.927 114.074 8.927L115.37 9.03027Z" fill="#37393F" fill-opacity="1.000000" fill-rule="nonzero"/>
	<path d="M120.344 19.0854C120.657 19.0854 120.97 19.218 121.282 19.4983C121.61 19.7783 121.759 20.1912 121.759 20.7515C121.759 21.3118 121.565 22.0342 121.163 22.9333C120.761 23.8181 120.225 24.7322 119.525 25.6609C118.84 26.575 118.065 27.4448 117.247 28.2559C116.413 29.0667 115.52 29.73 114.566 30.2461C113.598 30.7622 112.734 31.0276 111.945 31.0276C111.155 31.0276 110.53 30.7769 110.054 30.2903C109.577 29.8037 109.339 29.1257 109.339 28.2559C109.339 27.386 109.562 26.4128 109.994 25.366C110.426 24.3044 110.977 23.3757 111.662 22.5649C112.347 21.7539 113.077 21.0315 113.881 20.3828C115.534 19.0559 116.993 18.4072 118.244 18.4072C118.811 18.4072 119.228 18.54 119.511 18.8201C119.614 18.9084 119.659 18.9971 119.659 19.0559L119.659 19.1443C119.823 19.0854 120.046 19.0854 120.344 19.0854ZM118.811 21.0906L118.706 21.0906C118.349 21.0906 118.17 20.8398 118.17 20.324C117.426 20.5598 116.651 20.9873 115.832 21.5918C115.013 22.1963 114.283 22.9187 113.643 23.7444C112.332 25.3955 111.677 26.7961 111.662 27.9314C111.662 28.4917 111.87 28.7717 112.287 28.7717C112.704 28.7717 113.33 28.4917 114.149 27.9609C114.968 27.4302 115.787 26.6487 116.606 25.6313C117.41 24.6289 118.021 23.7444 118.423 23.0071C118.825 22.27 119.034 21.7688 119.034 21.4885C119.019 21.2231 118.944 21.0906 118.811 21.0906Z" fill="#37393F" fill-opacity="1.000000" fill-rule="nonzero"/>
	<path d="M121.431 30.6885L120.687 30.6589L120.418 30.6589C120.314 30.6294 120.21 30.5706 120.091 30.4819C119.972 30.3936 119.882 30.3198 119.822 30.2903C119.763 30.2607 119.733 30.1724 119.733 30.0691C119.733 29.9661 119.778 29.7744 119.853 29.5237C121.833 25.2039 123.754 21.7393 125.616 19.1592C125.824 18.8789 126.152 18.6577 126.599 18.5105C127.046 18.363 127.492 18.2893 127.924 18.2893C128.178 18.2893 128.312 18.481 128.312 18.8789C128.312 18.9968 128.267 19.1443 128.192 19.3213C128.118 19.5129 127.909 19.8079 127.582 20.2354C127.254 20.6628 126.867 21.1494 126.42 21.6802C125.974 22.2109 125.72 22.5354 125.66 22.6238C127.061 21.1936 128.312 20.1321 129.443 19.4246C130.575 18.7314 131.379 18.3777 131.886 18.3777C132.392 18.3777 132.779 18.5251 133.047 18.8052C133.315 19.0854 133.449 19.395 133.449 19.7192C133.449 20.0437 133.419 20.3237 133.375 20.5303C133.33 20.7515 133.24 20.9727 133.121 21.2085C133.002 21.4443 132.898 21.6506 132.809 21.813C132.72 21.9751 132.57 22.1963 132.377 22.4617C132.168 22.7271 132.034 22.9187 131.96 23.022C131.886 23.125 131.722 23.3167 131.483 23.5969C131.245 23.877 131.111 24.0391 131.096 24.0686C131.379 23.7886 131.781 23.3757 132.287 22.8154C132.794 22.2551 133.226 21.7981 133.583 21.4297C133.94 21.061 134.372 20.6335 134.908 20.1616C135.444 19.6899 135.937 19.3066 136.383 19.0264C137.485 18.3481 138.602 17.9944 139.733 17.9944C140.121 17.9944 140.448 18.1123 140.717 18.363C140.984 18.6135 141.119 18.8938 141.119 19.2329C141.119 19.572 140.702 20.3828 139.883 21.6506C139.063 22.9187 138.229 24.2014 137.41 25.4839C136.592 26.7666 136.175 27.5776 136.175 27.9167C136.175 28.3738 136.264 28.6538 136.428 28.7422C136.606 28.8308 136.814 28.8601 137.053 28.8455C137.291 28.8308 137.648 28.6685 138.081 28.3738C138.527 28.0789 138.915 27.7839 139.257 27.4595C139.823 26.9583 140.329 26.4717 140.821 26C140.925 25.9116 141.029 25.8674 141.163 25.8674C141.356 25.8674 141.477 26.0146 141.521 26.3096C141.565 26.6045 141.58 26.8994 141.58 27.2236C141.58 27.5481 141.551 27.7544 141.491 27.8723C141.193 28.4326 140.538 29.1255 139.54 29.9512C138.527 30.7622 137.56 31.1748 136.636 31.1748C136.517 31.1748 136.442 31.1748 136.397 31.1602C135.355 31.0569 134.626 30.7769 134.224 30.3049C133.821 29.8333 133.628 29.2729 133.628 28.6392C133.628 28.0051 133.852 27.209 134.298 26.2949C134.745 25.3809 135.222 24.5405 135.758 23.8032C136.294 23.0662 136.771 22.3879 137.217 21.7834C137.664 21.179 137.887 20.8545 137.887 20.8103C137.887 20.7661 137.843 20.7366 137.768 20.7366C137.455 20.7366 136.755 21.2378 135.653 22.2551C133.792 23.9802 132.184 25.6462 130.828 27.2385C130.471 27.666 129.622 28.7275 128.297 30.4524C128.147 30.6589 127.895 30.7622 127.566 30.7622C127.239 30.7622 126.896 30.7031 126.539 30.5703C126.182 30.4377 126.003 30.2756 126.003 30.084C126.003 29.9807 126.808 28.5654 128.431 25.8379C130.054 23.1104 130.857 21.6213 130.857 21.3853C130.857 21.1348 130.709 21.0168 130.411 21.0168C130.113 21.0168 129.488 21.459 128.55 22.3438C125.974 24.7764 123.978 27.209 122.562 29.6121C122.474 29.7595 122.295 29.9807 122.026 30.2756C121.759 30.5706 121.521 30.6885 121.431 30.6885Z" fill="#37393F" fill-opacity="1.000000" fill-rule="nonzero"/>
	<path d="M150.963 19.292C150.963 19.9556 150.695 20.5452 150.144 21.0464C149.593 21.5479 148.982 21.7983 148.282 21.7983C148.06 21.7983 147.91 21.7395 147.836 21.6362C147.762 21.533 147.731 21.3855 147.731 21.2234C147.731 21.0613 147.746 20.8843 147.791 20.7222C147.419 20.8401 147.017 21.0317 146.57 21.2825C146.123 21.533 145.572 21.9016 144.917 22.4028C144.262 22.9041 143.934 23.2581 143.934 23.5085C143.934 23.5823 144.053 23.6265 144.291 23.6265C144.529 23.6265 144.902 23.5381 145.394 23.376C145.885 23.2136 146.242 23.1252 146.436 23.1252C146.63 23.1252 146.764 23.1401 146.823 23.1548C146.957 23.2285 147.091 23.376 147.255 23.6118C147.404 23.8477 147.479 24.0393 147.479 24.1721C147.479 24.3047 147.345 24.4817 147.076 24.7029C146.809 24.9241 146.511 25.0862 146.183 25.2041C145.84 25.322 145.617 25.4104 145.513 25.4695C143.368 26.6636 142.296 27.4746 142.296 27.9167C142.296 28.6982 142.966 29.0964 144.321 29.0964C145.185 29.0964 146.063 28.8311 146.928 28.2854C147.672 27.8284 148.342 27.3567 148.938 26.8701C149.533 26.3982 149.906 26.1035 150.069 25.9856C150.233 25.8674 150.353 25.8232 150.427 25.8232C150.695 25.8232 150.829 26.1182 150.829 26.708C150.829 27.2976 150.799 27.6809 150.725 27.8579C150.65 28.0496 150.457 28.2708 150.114 28.5508C147.94 30.3052 145.87 31.1899 143.934 31.1899C142.892 31.1899 142.072 31.0425 141.447 30.7622C140.3 30.2463 139.734 29.4648 139.734 28.4033C139.734 27.0176 140.702 25.9561 142.653 25.2483C142.266 25.0713 142.013 24.865 141.908 24.585C141.789 24.3196 141.745 23.8918 141.745 23.3022C141.745 22.7124 142.027 22.0933 142.579 21.4297C143.13 20.7664 143.814 20.2209 144.619 19.8081C146.406 18.8496 148.015 18.3779 149.414 18.3779C149.757 18.3779 150.085 18.4517 150.442 18.6138C150.799 18.7759 150.963 18.9971 150.963 19.292Z" fill="#37393F" fill-opacity="1.000000" fill-rule="nonzero"/>
	<path d="M0 34.772C3.91699 36.3938 7.9082 37.647 11.9736 38.6052C16.0088 39.6077 20.1191 40.3154 24.2295 40.7578C26.2852 41.0378 28.3545 41.0674 30.3955 41.259C32.4648 41.2737 34.5205 41.4358 36.5752 41.3179L39.6582 41.2441C40.6855 41.2295 41.7129 41.0967 42.7412 41.0378C43.7686 40.9495 44.7959 40.905 45.8086 40.7725L48.8613 40.345C52.957 39.9026 56.9326 38.959 60.8945 37.8237C64.9004 36.7327 68.6826 35.2878 72.6895 33.7842C76.7842 32.2949 81.2227 31.322 85.7197 31.7937C87.9385 32.074 90.1729 32.7815 91.9893 34.0789C93.8213 35.3616 95.1318 37.1897 95.9658 39.1064C94.7148 37.3962 93.1514 35.9956 91.3486 35.1257C89.5469 34.2559 87.5664 33.9021 85.6006 33.9609C81.624 34.02 77.708 35.3323 74.0293 36.9834C70.291 38.8115 66.2402 40.4629 62.1602 41.834C58.0498 43.146 53.8057 44.1929 49.502 44.7236C40.9385 45.8442 32.167 45.8589 23.708 44.1633C19.4639 43.3967 15.3242 42.2026 11.3184 40.6841C7.3418 39.1064 3.45508 37.2634 0 34.772Z" fill="#40DDB6" fill-opacity="1.000000" fill-rule="nonzero"/>
	<path d="M142.415 10.2246C139.094 8.82397 135.714 7.73315 132.288 6.87793C128.878 5.97852 125.423 5.34473 121.953 4.90234C120.226 4.63696 118.468 4.57788 116.74 4.37158C114.998 4.32739 113.271 4.15039 111.528 4.22412C110.665 4.23901 109.786 4.23901 108.922 4.22412C108.059 4.22412 107.18 4.3125 106.316 4.34204C105.452 4.40112 104.573 4.41577 103.71 4.50439L101.119 4.81396C97.6484 5.09399 94.2832 5.80176 90.918 6.67163C87.5068 7.48242 84.2754 8.63232 80.8359 9.78247C77.3057 10.947 73.4785 11.6548 69.6367 11.124C67.7451 10.8145 65.8389 10.1509 64.335 8.97144C62.8008 7.80688 61.7588 6.2146 61.1182 4.54858C62.1758 6.00806 63.4863 7.20239 64.9902 7.93945C66.4941 8.67676 68.1475 8.98633 69.8008 8.97144C73.1357 8.97144 76.4424 7.90991 79.5693 6.58301C82.7568 5.07935 86.2559 3.75244 89.7412 2.66138C93.2559 1.6145 96.9189 0.818359 100.583 0.435059C107.895 -0.331543 115.37 -0.154541 122.534 1.52612C126.123 2.27808 129.622 3.42798 132.974 4.84326C136.339 6.28833 139.585 7.96899 142.415 10.2246Z" fill="#6B77E5" fill-opacity="1.000000" fill-rule="nonzero"/>
</svg>
