<svg width="119.778320" height="71.486084" viewBox="0 0 119.778 71.4861" fill="none" xmlns="http://www.w3.org/2000/svg" xmlns:xlink="http://www.w3.org/1999/xlink">
	<desc>
			Created with Pixso.
	</desc>
	<defs/>
	<path d="M61.4844 60.8635C47.7676 74.8396 25.2412 75.0547 11.2646 61.3291C10.6562 60.7292 10.0654 60.1116 9.50098 59.4758L10.8438 58.2939C11.3809 58.8938 11.9365 59.4937 12.5186 60.0579C25.7871 73.085 47.1855 72.8879 60.2129 59.6101L61.4844 60.8635Z" fill="#40DDB6" fill-opacity="1.000000" fill-rule="nonzero"/>
	<path d="M63.4717 13.3127L62.0928 14.4587C61.3584 13.5813 60.5703 12.7217 59.7559 11.916C46.4863 -1.11108 25.0879 -0.905273 12.0615 12.3638C11.1748 13.2681 10.3242 14.2349 9.54492 15.2288L8.13965 14.1274C8.9541 13.0798 9.84961 12.0681 10.79 11.1101C24.5059 -2.86597 47.0332 -3.08081 61.0088 10.6357C61.8779 11.4863 62.7012 12.3906 63.4717 13.3127Z" fill="#40DDB6" fill-opacity="1.000000" fill-rule="nonzero"/>
	<path d="M110.888 12.0413L109.545 13.2231C109.008 12.6233 108.453 12.0234 107.871 11.4592C95.6494 -0.529297 76.3906 -1.47827 63.0859 9.26587L61.958 7.86914C75.9697 -3.448 96.2402 -2.4541 109.115 10.179C109.733 10.7878 110.324 11.4055 110.888 12.0413Z" fill="#40DDB6" fill-opacity="1.000000" fill-rule="nonzero"/>
	<path d="M109.59 60.4165C97.709 72.5212 78.835 74.5359 64.707 65.2063L65.6924 63.7112C79.1035 72.5662 97.0283 70.6501 108.31 59.1628C109.196 58.2585 110.047 57.2917 110.825 56.2979L112.231 57.3992C111.417 58.4465 110.53 59.4585 109.59 60.4165Z" fill="#40DDB6" fill-opacity="1.000000" fill-rule="nonzero"/>
	<path d="M4.7998 54.4182L5.2207 54.1584L6.05371 55.5015L6.98438 54.9194L6.33105 53.8721L6.75195 53.6123L7.40527 54.6599L8.79297 53.8003L9.11523 54.3196L5.94629 56.2893L4.7998 54.4182Z" fill="#37393F" fill-opacity="1.000000" fill-rule="nonzero"/>
	<path d="M5.90137 49.3062L5.41797 48.1421L5.875 47.9541L6.59961 49.6821L3.15234 51.1147L2.91992 50.5505L5.90137 49.3062Z" fill="#37393F" fill-opacity="1.000000" fill-rule="nonzero"/>
	<path d="M4.54004 44.3904C4.44141 44.7126 4.27148 44.9902 4.02051 45.2139C3.77051 45.4468 3.47461 45.5989 3.11621 45.6794C2.75879 45.7603 2.41797 45.7512 2.10449 45.6438C1.79199 45.5364 1.51367 45.3662 1.29004 45.1155C1.06641 44.8647 0.914062 44.5693 0.842773 44.229C0.761719 43.8889 0.770508 43.5576 0.869141 43.2354C0.967773 42.9131 1.1377 42.6443 1.37988 42.4116C1.62988 42.1877 1.92578 42.0356 2.28418 41.9551C2.64258 41.8743 2.98242 41.8833 3.30469 41.9907C3.62695 42.0894 3.89551 42.2593 4.11914 42.51C4.34277 42.7607 4.49512 43.0562 4.56738 43.3965C4.64746 43.7366 4.62988 44.0679 4.54004 44.3904ZM3.74316 42.9041C3.59082 42.7429 3.40332 42.6265 3.16992 42.5637C2.9375 42.5012 2.69629 42.5012 2.42676 42.5637C2.1582 42.6265 1.93457 42.7339 1.75586 42.8862C1.57617 43.0383 1.45117 43.2173 1.38867 43.4324C1.32617 43.6472 1.31738 43.8711 1.37109 44.1128C1.4248 44.3545 1.52246 44.5603 1.6748 44.7214C1.82715 44.8828 2.01562 44.999 2.23926 45.0618C2.46289 45.1245 2.71387 45.1245 2.98242 45.0618C3.25098 44.999 3.47461 44.8916 3.6543 44.7395C3.83301 44.5872 3.95801 44.4082 4.03027 44.1934C4.10156 43.9785 4.10156 43.7546 4.04785 43.5129C3.99414 43.271 3.89551 43.0742 3.74316 42.9041Z" fill="#37393F" fill-opacity="1.000000" fill-rule="nonzero"/>
	<path d="M3.70801 36.4844L2.24805 37.3977L2.2666 37.8633L3.76172 37.8096L3.7793 38.4185L0.0458984 38.5437L0.000976562 37.2634C-0.0078125 36.9768 0.0371094 36.7351 0.126953 36.5293C0.21582 36.3232 0.350586 36.1711 0.511719 36.0725C0.672852 35.9651 0.860352 35.9114 1.06641 35.9023C1.30859 35.8936 1.53223 35.9561 1.73828 36.0906C1.94434 36.2249 2.08691 36.4397 2.16797 36.7261L3.68066 35.7502L3.70801 36.4844ZM1.77344 37.8811L1.74707 37.2007C1.73828 36.968 1.67578 36.7979 1.55859 36.6904C1.44238 36.574 1.28125 36.5293 1.09375 36.5293C0.905273 36.5381 0.75293 36.6008 0.645508 36.7173C0.538086 36.8335 0.493164 37.0127 0.50293 37.2454L0.529297 37.917L1.77344 37.8811Z" fill="#37393F" fill-opacity="1.000000" fill-rule="nonzero"/>
	<path d="M3.40332 30.1638L3.18848 31.7129L3.90527 32.0889L3.81543 32.7246L0.296875 30.8801L0.395508 30.1819L4.28125 29.376L4.19141 30.0117L3.40332 30.1638ZM2.88477 30.2625L1.08496 30.6206L2.72363 31.4622L2.88477 30.2625Z" fill="#37393F" fill-opacity="1.000000" fill-rule="nonzero"/>
	<path d="M4.72852 25.5972L5.09473 24.3884L5.56934 24.5317L5.02344 26.3223L1.45117 25.239L1.62988 24.657L4.72852 25.5972Z" fill="#37393F" fill-opacity="1.000000" fill-rule="nonzero"/>
	<path d="M6.81445 21.1384C6.64453 21.2817 6.46582 21.3711 6.27734 21.407C6.08105 21.4429 5.89258 21.416 5.69531 21.3174L5.98242 20.7266C6.13477 20.7803 6.27734 20.7803 6.4209 20.7266C6.56445 20.6729 6.68066 20.5474 6.77051 20.3684C6.85938 20.1804 6.88672 20.0103 6.8418 19.8582C6.80566 19.7058 6.70703 19.5984 6.56445 19.5269C6.44727 19.4731 6.33984 19.4641 6.24219 19.491C6.14355 19.5269 6.04492 19.5806 5.95508 19.6611C5.875 19.7417 5.76758 19.8582 5.63281 20.0103C5.47168 20.1982 5.32812 20.3506 5.20312 20.458C5.07812 20.5654 4.92578 20.637 4.75586 20.6729C4.58594 20.7085 4.38867 20.6729 4.18262 20.5742C3.98535 20.4849 3.84277 20.3506 3.74414 20.1892C3.64551 20.0193 3.60059 19.8313 3.60059 19.6252C3.60938 19.4104 3.66309 19.1956 3.77051 18.9626C3.92285 18.6404 4.1377 18.4077 4.39746 18.2732C4.65723 18.1389 4.93457 18.1389 5.23047 18.2463L4.93457 18.8552C4.80957 18.8105 4.68359 18.8196 4.54102 18.8821C4.40625 18.9448 4.29004 19.0701 4.20898 19.2402C4.1377 19.4014 4.11133 19.5447 4.14648 19.688C4.18262 19.8313 4.27246 19.9297 4.42383 20.0012C4.53125 20.0549 4.62988 20.064 4.71973 20.0281C4.81836 20.0012 4.9082 19.9387 4.98828 19.8669C5.06934 19.7864 5.17676 19.679 5.30176 19.5269C5.47168 19.3298 5.61523 19.1775 5.74902 19.0701C5.875 18.9626 6.02734 18.8821 6.20605 18.8464C6.38477 18.8105 6.57324 18.8374 6.78809 18.9448C6.95801 19.0254 7.10156 19.1506 7.20898 19.312C7.31641 19.4731 7.37012 19.6699 7.37891 19.885C7.3877 20.1086 7.33398 20.3325 7.21777 20.5742C7.11914 20.8071 6.98535 20.9951 6.81445 21.1384Z" fill="#37393F" fill-opacity="1.000000" fill-rule="nonzero"/>
	<path d="M115.472 17.7446L115.042 17.9954L114.245 16.6255L113.296 17.1807L113.914 18.2461L113.484 18.4966L112.866 17.4312L111.452 18.2549L111.147 17.7268L114.38 15.8555L115.472 17.7446Z" fill="#37393F" fill-opacity="1.000000" fill-rule="nonzero"/>
	<path d="M114.228 22.8208L114.675 24.0027L114.219 24.1816L113.547 22.4268L117.029 21.0928L117.244 21.6658L114.228 22.8208Z" fill="#37393F" fill-opacity="1.000000" fill-rule="nonzero"/>
	<path d="M115.445 27.7805C115.553 27.4583 115.731 27.1897 115.982 26.9749C116.233 26.76 116.547 26.6077 116.904 26.5361C117.263 26.4644 117.604 26.4912 117.916 26.5986C118.229 26.7151 118.498 26.8943 118.713 27.1538C118.928 27.4136 119.071 27.709 119.134 28.0491C119.196 28.3894 119.179 28.7207 119.071 29.043C118.964 29.3564 118.785 29.625 118.534 29.8489C118.283 30.0728 117.979 30.2158 117.621 30.2786C117.263 30.3501 116.923 30.3232 116.609 30.2158C116.287 30.1084 116.027 29.9204 115.812 29.6697C115.598 29.4102 115.454 29.1147 115.392 28.7654C115.32 28.4253 115.338 28.094 115.445 27.7805ZM116.197 29.2847C116.35 29.4548 116.528 29.5713 116.762 29.6428C116.994 29.7146 117.236 29.7146 117.505 29.6697C117.773 29.616 117.997 29.5176 118.185 29.3743C118.364 29.231 118.498 29.052 118.57 28.8372C118.642 28.6223 118.65 28.3984 118.605 28.1567C118.562 27.9148 118.463 27.709 118.319 27.5388C118.176 27.3687 117.988 27.2524 117.765 27.1807C117.54 27.1091 117.29 27.1091 117.021 27.1538C116.753 27.2075 116.52 27.3062 116.341 27.4492C116.161 27.5925 116.027 27.7717 115.956 27.9866C115.884 28.2014 115.866 28.4253 115.911 28.667C115.956 28.9087 116.054 29.1147 116.197 29.2847Z" fill="#37393F" fill-opacity="1.000000" fill-rule="nonzero"/>
	<path d="M116.045 35.7051L117.531 34.8364L117.531 34.3708L116.036 34.3799L116.036 33.771L119.77 33.7532L119.778 35.0425C119.778 35.3289 119.733 35.5708 119.636 35.7676C119.537 35.9646 119.402 36.1169 119.232 36.2153C119.062 36.3137 118.874 36.3674 118.668 36.3674C118.427 36.3674 118.203 36.2959 118.006 36.1616C117.809 36.0273 117.666 35.8035 117.594 35.5081L116.054 36.4392L116.045 35.7051ZM118.015 34.3621L118.015 35.0425C118.015 35.2751 118.077 35.4453 118.194 35.5618C118.311 35.6782 118.463 35.7319 118.659 35.7319C118.856 35.7319 119 35.6692 119.116 35.5618C119.224 35.4453 119.277 35.2751 119.277 35.0425L119.277 34.3621L118.015 34.3621Z" fill="#37393F" fill-opacity="1.000000" fill-rule="nonzero"/>
	<path d="M116.161 42.0256L116.421 40.4856L115.714 40.0918L115.821 39.4561L119.286 41.3989L119.17 42.0972L115.257 42.7957L115.364 42.1599L116.161 42.0256ZM116.689 41.9451L118.498 41.6318L116.887 40.7363L116.689 41.9451Z" fill="#37393F" fill-opacity="1.000000" fill-rule="nonzero"/>
	<path d="M114.711 46.5566L114.309 47.7563L113.843 47.5952L114.434 45.8135L117.979 46.9954L117.782 47.5774L114.711 46.5566Z" fill="#37393F" fill-opacity="1.000000" fill-rule="nonzero"/>
	<path d="M112.5 50.9524C112.67 50.8181 112.85 50.7285 113.046 50.7017C113.243 50.6748 113.432 50.7107 113.628 50.8091L113.333 51.3911C113.181 51.3284 113.037 51.3284 112.895 51.3823C112.751 51.436 112.635 51.5522 112.536 51.7314C112.438 51.9194 112.41 52.0896 112.446 52.2417C112.482 52.394 112.571 52.5103 112.715 52.582C112.822 52.6357 112.93 52.6536 113.037 52.6267C113.145 52.5999 113.234 52.5461 113.324 52.4656C113.413 52.385 113.521 52.2776 113.655 52.1252C113.825 51.9373 113.969 51.7939 114.103 51.6865C114.229 51.5791 114.38 51.5166 114.551 51.4807C114.721 51.4448 114.918 51.4897 115.123 51.5972C115.312 51.6956 115.455 51.8298 115.553 52C115.651 52.1702 115.688 52.3582 115.679 52.573C115.67 52.7878 115.598 53.0027 115.481 53.2266C115.32 53.5488 115.097 53.7727 114.837 53.8982C114.568 54.0234 114.291 54.0234 113.995 53.8982L114.309 53.2981C114.434 53.3521 114.568 53.343 114.712 53.2893C114.854 53.2266 114.962 53.1101 115.052 52.9402C115.133 52.7878 115.159 52.6357 115.133 52.4924C115.105 52.3491 115.016 52.2417 114.864 52.1702C114.766 52.1165 114.667 52.1074 114.568 52.1343C114.47 52.1611 114.38 52.2148 114.291 52.2864C114.201 52.3582 114.094 52.4746 113.969 52.6177C113.798 52.8057 113.646 52.958 113.512 53.0654C113.378 53.1729 113.226 53.2444 113.056 53.2803C112.876 53.3162 112.688 53.2712 112.474 53.1638C112.303 53.0745 112.169 52.949 112.07 52.7788C111.963 52.6089 111.918 52.4209 111.909 52.197C111.909 51.9731 111.972 51.7493 112.088 51.5166C112.187 51.2747 112.33 51.0957 112.5 50.9524Z" fill="#37393F" fill-opacity="1.000000" fill-rule="nonzero"/>
	<path d="M33.541 27.9602C34.6152 27.9602 35.4297 27.835 35.9941 27.5933C36.5488 27.3425 36.916 27.1545 37.0859 27.0291C37.0859 27.2888 37.0322 27.6021 36.9248 27.9602C36.8174 28.3274 36.6201 28.6765 36.3428 29.0256C36.0654 29.366 35.6982 29.6614 35.251 29.8943C34.8027 30.127 34.2305 30.2524 33.541 30.2524C32.6631 30.2524 31.8125 30.0823 30.998 29.751C30.1836 29.4197 29.377 29.0615 28.5801 28.6675C27.7832 28.2827 27.0049 27.9246 26.2256 27.5842C25.4473 27.2439 24.6592 27.0828 23.8438 27.0828C22.9668 27.0828 22.1875 27.2261 21.5254 27.5037C20.8623 27.7812 20.2988 28.1572 19.833 28.6138C19.3672 29.0793 18.9912 29.5986 18.6875 30.1897C18.3828 30.7805 18.1406 31.3804 17.9619 31.9983C17.7832 32.6072 17.6572 33.207 17.5947 33.7888C17.5322 34.3708 17.4961 34.8811 17.4961 35.3379C17.4961 35.9646 17.5498 36.448 17.6572 36.8062C17.7646 37.1643 17.8369 37.3882 17.8809 37.4956L17.8809 37.5315C17.4336 37.406 17.0215 37.218 16.6543 36.9854C16.3506 36.7703 16.082 36.4839 15.8311 36.1167C15.5801 35.7498 15.4639 35.2751 15.4639 34.7021C15.4639 33.7979 15.6611 32.8667 16.0635 31.8997C16.458 30.9329 17.0127 30.0554 17.7197 29.2585C18.4277 28.4617 19.2871 27.8081 20.2988 27.2888C21.3105 26.7695 22.4297 26.5188 23.6475 26.5188C24.3545 26.5188 25.1426 26.5903 26.002 26.7427C26.8613 26.8948 27.7393 27.0559 28.625 27.2439C29.5205 27.4231 30.3887 27.5933 31.2393 27.7454C32.0811 27.8887 32.8516 27.9602 33.541 27.9602ZM21.418 44.4702C21.418 44.2554 21.4805 43.8972 21.5967 43.3958C21.7129 42.8945 21.874 42.2947 22.0801 41.5962C22.2861 40.8979 22.5195 40.1189 22.7881 39.2593C23.0566 38.3999 23.334 37.5134 23.6113 36.5913C23.0293 36.7166 22.5459 36.7793 22.1611 36.7793C21.9014 36.7793 21.6865 36.7346 21.5166 36.6541C21.3467 36.5735 21.2031 36.4749 21.0957 36.3584C20.9883 36.2422 20.916 36.1348 20.8721 36.0273C20.8271 35.9197 20.8086 35.8391 20.8086 35.7676C20.8721 35.8303 20.9971 35.9019 21.1758 35.9736C21.3555 36.0452 21.5615 36.0898 21.7764 36.0898C22.0088 36.0898 22.3135 36.0542 22.6807 35.9736C23.0469 35.9019 23.4414 35.8035 23.8711 35.696C24.0859 34.917 24.3008 34.147 24.5156 33.386C24.7305 32.616 24.9189 31.9087 25.0801 31.2642C25.2412 30.6194 25.3662 30.0642 25.4648 29.5986C25.5635 29.1331 25.6084 28.802 25.6084 28.6138C25.6084 28.5244 25.6084 28.4526 25.6084 28.3901C25.6084 28.3274 25.5986 28.22 25.5723 28.0676C25.7246 28.1125 25.9395 28.1841 26.2168 28.2915C26.4941 28.3989 26.7627 28.5244 27.0225 28.6587C27.2822 28.802 27.5059 28.9363 27.7031 29.0615C27.9004 29.187 27.9893 29.2854 27.9893 29.3481C27.9893 29.6882 27.8467 30.3687 27.5508 31.3804C27.2646 32.3921 26.8975 33.583 26.4678 34.9619C27.0947 34.7917 27.5957 34.6306 27.9805 34.4963C28.3652 34.353 28.7236 34.2544 29.0459 34.1919C29.0459 34.0217 29.0283 33.8875 28.9834 33.8069C29.2607 33.8516 29.5479 33.8962 29.834 33.9321C30.1201 33.9768 30.3887 34.0308 30.6396 34.0933C30.8906 34.156 31.0879 34.2366 31.2393 34.335C31.3916 34.4336 31.4639 34.541 31.4639 34.6753C31.4639 34.8723 31.4189 35.0962 31.3379 35.3557C31.249 35.6155 31.1592 35.884 31.0518 36.1616C30.9443 36.4392 30.8545 36.7166 30.7744 37.0032C30.6934 37.2896 30.6758 37.5493 30.6934 37.8088C30.541 37.8088 30.3262 37.8088 30.0488 37.8088C29.7715 37.8088 29.4941 37.8 29.2256 37.7732C28.9561 37.7551 28.7236 37.7014 28.5176 37.6299C28.3115 37.5583 28.2139 37.4329 28.2139 37.2627C28.2139 37.1375 28.249 36.9673 28.3301 36.7615C28.4014 36.5554 28.4912 36.3406 28.5898 36.0989C28.6875 35.866 28.7773 35.6243 28.8672 35.3916C28.9561 35.1587 29.0195 34.9529 29.0645 34.7827C28.6973 34.8901 28.3027 35.0425 27.873 35.2305C27.4434 35.4272 26.9062 35.6243 26.2617 35.8391C25.9844 36.7883 25.6973 37.7463 25.4111 38.7222C25.125 39.698 24.8555 40.6292 24.623 41.5066C24.3906 42.384 24.1846 43.1809 24.0234 43.8794C23.8623 44.5776 23.7725 45.1328 23.7461 45.5356C23.6562 45.5178 23.4863 45.4641 23.2266 45.3745C22.9668 45.2849 22.707 45.1956 22.4385 45.0969C22.1699 44.9985 21.9375 44.8999 21.7314 44.7925C21.5254 44.6851 21.418 44.5776 21.418 44.4702Z" fill="#6B77E5" fill-opacity="1.000000" fill-rule="nonzero"/>
	<path d="M92.1045 41.7131C92.2568 41.158 92.498 40.2805 92.8301 39.0986C93.1611 37.917 93.5732 36.6008 94.0566 35.1504C94.54 33.7 95.0947 32.2046 95.7305 30.6736C96.3662 29.1338 97.0381 27.7371 97.7627 26.4656C98.4795 25.1941 99.249 24.1555 100.055 23.3408C100.861 22.5261 101.693 22.1143 102.553 22.1143C102.875 22.1143 103.18 22.2217 103.476 22.4365C103.762 22.6514 104.03 22.8843 104.263 23.1438C104.522 23.4482 104.765 23.7886 105.006 24.1736C104.943 24.1555 104.863 24.1287 104.782 24.1108C104.72 24.093 104.64 24.0662 104.559 24.0481C104.469 24.0303 104.389 24.0125 104.299 24.0125C103.207 24.0125 102.168 24.3975 101.201 25.1763C100.234 25.9463 99.3301 26.9312 98.4971 28.1218C97.6553 29.3127 96.9033 30.6379 96.2227 32.0884C95.543 33.5388 94.9521 34.9443 94.4326 36.2964C93.9131 37.6482 93.4834 38.875 93.125 39.9673C92.7666 41.0596 92.5166 41.8564 92.3643 42.3489C92.4893 42.6084 92.624 42.7695 92.749 42.8323C92.2744 42.895 91.8359 42.9038 91.4238 42.8501C91.0127 42.7964 90.6543 42.6443 90.332 42.4026C90.0098 42.1519 89.75 41.8027 89.5615 41.3372C89.3652 40.8716 89.2578 40.2896 89.2393 39.5823C89.2217 38.9197 89.1943 38.0691 89.1768 37.0483C89.1592 36.0278 89.1318 35.0071 89.1143 33.9863C89.0967 32.9656 89.0781 32.0525 89.0693 31.2466C89.0605 30.4409 89.0518 29.9304 89.0518 29.7156L89.0518 29.1963C88.8809 29.7156 88.5859 30.5393 88.1826 31.6765C87.7715 32.8135 87.2695 34.0938 86.6699 35.5085C86.0703 36.9231 85.3984 38.3826 84.6553 39.8777C83.9121 41.3728 83.1328 42.7427 82.3184 43.9873C81.5039 45.2317 80.6621 46.2524 79.8027 47.0493C78.9434 47.8462 78.0928 48.24 77.2598 48.24C76.9375 48.24 76.6689 48.1238 76.4541 47.8818C76.2393 47.6492 76.0693 47.3806 75.9346 47.0762C75.7822 46.7358 75.6572 46.333 75.5498 45.8853C75.6396 45.9302 75.7197 45.957 75.8096 45.9839C75.9795 46.0286 76.1318 46.0466 76.2568 46.0466C77.3135 46.0466 78.334 45.6794 79.3193 44.9541C80.3037 44.229 81.2354 43.28 82.1035 42.1338C82.9717 40.9878 83.7871 39.7166 84.5391 38.3289C85.291 36.9409 85.9629 35.5891 86.5537 34.2639C87.1445 32.9387 87.6455 31.7302 88.0664 30.6379C88.4873 29.5454 88.8008 28.7219 89.0156 28.1846C88.9258 27.925 88.8906 27.7458 88.8906 27.6384C89.1504 27.6384 89.4365 27.6475 89.7412 27.6743C90.0547 27.6921 90.3496 27.7817 90.627 27.9338C90.9043 28.0862 91.1465 28.301 91.335 28.5964C91.5312 28.8831 91.6211 29.3037 91.6211 29.8411C91.6211 30.1187 91.6299 30.5303 91.6572 31.0676C91.6748 31.6047 91.6924 32.2046 91.7012 32.8582C91.7109 33.512 91.7285 34.1924 91.7461 34.9087C91.7646 35.616 91.7822 36.2964 91.791 36.9409C91.7998 37.5857 91.8086 38.1587 91.8271 38.6511C91.8359 39.1436 91.8447 39.5105 91.8447 39.7434C91.8721 40.4954 91.9521 41.1489 92.1045 41.7131Z" fill="#6B77E5" fill-opacity="1.000000" fill-rule="nonzero"/>
	<path d="M61.9668 29.5364C61.8154 33.3862 60.2393 35.9736 58.4219 35.9021C56.6045 35.8306 55.2432 33.1265 55.3955 29.2766C55.5479 25.4268 58.9854 21.9707 58.9854 21.9707C58.9854 21.9707 62.1191 25.6863 61.9668 29.5364Z" fill="#37393F" fill-opacity="1.000000" fill-rule="nonzero"/>
	<path d="M66.292 28.2649C66.2744 28.417 65.8262 32.0164 63.5879 34.1292C62.5225 35.1409 61.3682 35.884 60.3467 36.2153C59.2549 36.5735 58.3594 36.457 57.8223 35.884C56.7744 34.7827 57.6699 32.3296 59.8906 30.2166C62.1289 28.1038 65.7373 27.853 65.8984 27.844L66.3457 27.8171L66.292 28.2649ZM58.3682 35.3647C58.6904 35.7139 59.3174 35.7588 60.1143 35.499C61.0273 35.2036 62.084 34.5232 63.0693 33.583C64.6533 32.0879 65.2627 29.6704 65.46 28.6499C64.4385 28.793 61.9854 29.2676 60.4102 30.7627C58.9951 32.1057 58.1182 33.583 58.1182 34.6216C58.1182 34.9351 58.207 35.1858 58.3682 35.3647Z" fill="#37393F" fill-opacity="1.000000" fill-rule="nonzero"/>
	<path d="M58.9863 35.9285C58.6455 36.2329 58.1807 36.3853 57.6426 36.3584C56.3984 36.2957 54.7959 35.3108 53.3721 33.7261C51.3135 31.4341 51.1523 27.8169 51.1426 27.6646L51.125 27.208L51.5723 27.2708C51.7246 27.2886 55.3066 27.8347 57.3652 30.1179C58.7529 31.6577 59.541 33.2515 59.541 34.4961C59.5586 35.0959 59.3623 35.5972 58.9863 35.9285ZM53.9365 33.2156C55.2168 34.6304 56.6494 35.5525 57.6875 35.6062C58.0283 35.624 58.2969 35.5435 58.4844 35.3735C58.6904 35.1855 58.7979 34.8899 58.7979 34.5049C58.7979 33.4575 58.0547 32.0159 56.8193 30.6282C55.3604 29.0076 52.96 28.3362 51.9482 28.1123C52.0654 29.1331 52.4766 31.5862 53.9365 33.2156Z" fill="#37393F" fill-opacity="1.000000" fill-rule="nonzero"/>
	<path d="M59.0312 28.1663C59.0312 28.0049 58.9053 27.8706 58.7354 27.8618C58.5654 27.8528 58.4307 27.9871 58.4219 28.1482L57.6162 48.1589C57.6162 48.168 57.6162 48.168 57.6162 48.168C57.6162 48.3291 57.7412 48.4634 57.9121 48.4724C58.082 48.4812 58.2158 48.3469 58.2246 48.1768L59.0312 28.1663Z" fill="#37393F" fill-opacity="1.000000" fill-rule="nonzero"/>
	<path d="M70.876 33.458C70.876 33.4312 70.876 33.4133 70.8672 33.3865C70.8311 33.2253 70.6611 33.1267 70.5 33.1626C70.375 33.1895 58.0908 36.2874 57.6699 46.9775C57.6699 46.9866 57.6699 46.9866 57.6699 46.9866C57.6699 47.1477 57.7949 47.282 57.9561 47.291C58.127 47.3 58.2607 47.1655 58.2695 46.9956C58.6816 36.7529 70.5176 33.7715 70.6348 33.7446C70.7861 33.7178 70.876 33.5923 70.876 33.458Z" fill="#37393F" fill-opacity="1.000000" fill-rule="nonzero"/>
	<path d="M67.1953 39.949C67.1953 39.9399 67.1953 39.9221 67.1953 39.9041C67.1689 39.7341 67.0166 39.6177 66.8555 39.6445C66.7656 39.6533 57.9199 40.9338 57.6426 47.7742L57.6426 47.783C57.6426 47.9443 57.7676 48.0786 57.9385 48.0874C58.1084 48.0964 58.2422 47.9622 58.251 47.792C58.502 41.4619 66.8555 40.2534 66.9365 40.2444C67.0879 40.2266 67.1953 40.1011 67.1953 39.949Z" fill="#37393F" fill-opacity="1.000000" fill-rule="nonzero"/>
	<path d="M58.2871 46.4487C58.2871 36.1704 46.7109 32.2488 46.5947 32.2041C46.4336 32.1504 46.2637 32.24 46.21 32.4011C46.165 32.5623 46.2451 32.7324 46.4062 32.7861C46.5225 32.8218 58.0996 36.7434 57.6787 46.9861C57.6787 46.9951 57.6787 46.9951 57.6787 46.9951C57.6787 47.1562 57.8037 47.2905 57.9648 47.2993C58.1357 47.3083 58.2695 47.1741 58.2783 47.0039C58.2871 46.8159 58.2871 46.6279 58.2871 46.4487Z" fill="#37393F" fill-opacity="1.000000" fill-rule="nonzero"/>
	<path d="M58.251 47.4875C58.251 40.8979 49.7988 38.9819 49.71 38.9639C49.5488 38.9282 49.3877 39.0356 49.3516 39.1968C49.3154 39.3669 49.4229 39.519 49.584 39.5549C49.665 39.5728 57.8662 41.426 57.6426 47.7739L57.6426 47.783C57.6426 47.9441 57.7676 48.0784 57.9375 48.0874C58.1084 48.0964 58.2422 47.9619 58.251 47.792C58.251 47.6934 58.251 47.5859 58.251 47.4875Z" fill="#37393F" fill-opacity="1.000000" fill-rule="nonzero"/>
	<path d="M72.7373 33.5476C72.6924 34.7385 71.6807 35.6697 70.4902 35.6248C69.3262 35.5801 68.4131 34.6311 68.4131 33.3774C68.458 32.1868 69.4697 31.2556 70.6602 31.3003C71.8242 31.3452 72.7373 32.2942 72.7373 33.467L72.7373 33.5476ZM70.5176 34.7922C71.251 34.8191 71.8691 34.2461 71.9053 33.512L72.3262 33.4583L71.9053 33.4583C71.9053 32.7419 71.3408 32.1599 70.625 32.124C69.8906 32.0972 69.2725 32.6702 69.2363 33.4583C69.2363 34.1743 69.8008 34.7654 70.5176 34.7922Z" fill="#37393F" fill-opacity="1.000000" fill-rule="nonzero"/>
	<path d="M48.6621 32.5803C48.6357 33.1624 48.3936 33.6907 47.9639 34.0847C47.543 34.4785 46.9883 34.6755 46.4062 34.6577C45.2422 34.6128 44.3291 33.6638 44.3291 32.4104C44.3564 31.8284 44.5977 31.3 45.0273 30.9062C45.4482 30.5122 46.0029 30.3152 46.585 30.3333C47.749 30.3779 48.6621 31.3269 48.6621 32.4998L48.6621 32.5803ZM46.4424 33.825C46.7998 33.8428 47.1406 33.7175 47.4004 33.4758C47.6602 33.2341 47.8115 32.9028 47.8301 32.5447L48.251 32.491L47.8389 32.491C47.8389 31.7747 47.2744 31.1926 46.5586 31.1567C46.2002 31.1389 45.8604 31.2644 45.6006 31.5061C45.3408 31.7478 45.1885 32.0791 45.1709 32.491C45.1621 33.2073 45.7256 33.7981 46.4424 33.825Z" fill="#37393F" fill-opacity="1.000000" fill-rule="nonzero"/>
	<path d="M68.6377 40.0205C68.6016 40.9875 67.7871 41.7397 66.8193 41.6948C65.8525 41.6592 65.1006 40.8442 65.1455 39.8774C65.1816 38.9104 65.9961 38.1582 66.9629 38.2031C67.9297 38.2388 68.6729 39.0537 68.6377 40.0205Z" fill="#37393F" fill-opacity="1.000000" fill-rule="nonzero"/>
	<path d="M51.3936 39.3311C51.3574 40.2981 50.543 41.0503 49.5752 41.0054C48.6084 40.9697 47.8564 40.1548 47.9014 39.188C47.9375 38.2209 48.752 37.4688 49.7188 37.5137C50.6855 37.5493 51.4287 38.3643 51.3936 39.3311Z" fill="#37393F" fill-opacity="1.000000" fill-rule="nonzero"/>
</svg>
