<svg width="72.000000" height="72.000000" viewBox="0 0 72 72" fill="none" xmlns="http://www.w3.org/2000/svg" xmlns:xlink="http://www.w3.org/1999/xlink">
	<desc>
			Created with Pixso.
	</desc>
	<defs/>
	<circle id="Ellipse 120" cx="36.000000" cy="36.000000" r="36.000000" fill="#6B77E5" fill-opacity="1.000000"/>
	<path id="Vector" d="M52.5 52.5L19.5 52.5" stroke="#FFFFFF" stroke-opacity="1.000000" stroke-width="2.000000" stroke-linejoin="round" stroke-linecap="round"/>
	<path id="Vector" d="M39 27C39 26.1716 39.6719 25.5 40.5 25.5L48 25.5C48.8281 25.5 49.5 26.1716 49.5 27L49.5 45C49.5 45.8284 48.8281 46.5 48 46.5L40.5 46.5C39.6719 46.5 39 45.8284 39 45L39 27Z" stroke="#FFFFFF" stroke-opacity="1.000000" stroke-width="2.000000" stroke-linejoin="round"/>
	<path id="Vector" d="M31.5 18C32.3281 18 33 18.6716 33 19.5L33 45C33 45.8284 32.3281 46.5 31.5 46.5L24 46.5C23.1719 46.5 22.5 45.8284 22.5 45L22.5 19.5C22.5 18.6716 23.1719 18 24 18L31.5 18Z" stroke="#FFFFFF" stroke-opacity="1.000000" stroke-width="2.000000" stroke-linejoin="round"/>
</svg>
