<svg width="72.000000" height="72.000000" viewBox="0 0 72 72" fill="none" xmlns="http://www.w3.org/2000/svg" xmlns:xlink="http://www.w3.org/1999/xlink">
	<desc>
			Created with Pixso.
	</desc>
	<defs/>
	<circle id="Ellipse 120" cx="36.000000" cy="36.000000" r="36.000000" fill="#40DDB6" fill-opacity="1.000000"/>
	<path id="Vector" d="M17.625 50.4375L54.375 50.4375" stroke="#FFFFFF" stroke-opacity="1.000000" stroke-width="2.000000" stroke-linejoin="round" stroke-linecap="round"/>
	<path id="Vector" d="M38.625 50.4375L38.625 21.5625C38.625 21.2144 38.4863 20.8806 38.2402 20.6345C37.9941 20.3882 37.6602 20.25 37.3125 20.25L21.5625 20.25C21.2148 20.25 20.8809 20.3882 20.6348 20.6345C20.3887 20.8806 20.25 21.2144 20.25 21.5625L20.25 50.4375" stroke="#FFFFFF" stroke-opacity="1.000000" stroke-width="2.000000" stroke-linejoin="round" stroke-linecap="round"/>
	<path id="Vector" d="M51.75 50.4375L51.75 32.0625C51.75 31.7144 51.6113 31.3806 51.3652 31.1345C51.1191 30.8882 50.7852 30.75 50.4375 30.75L38.625 30.75" stroke="#FFFFFF" stroke-opacity="1.000000" stroke-width="2.000000" stroke-linejoin="round" stroke-linecap="round"/>
	<path id="Vector" d="M25.5 26.8125L30.75 26.8125" stroke="#FFFFFF" stroke-opacity="1.000000" stroke-width="2.000000" stroke-linejoin="round" stroke-linecap="round"/>
	<path id="Vector" d="M28.125 37.3125L33.375 37.3125" stroke="#FFFFFF" stroke-opacity="1.000000" stroke-width="2.000000" stroke-linejoin="round" stroke-linecap="round"/>
	<path id="Vector" d="M25.5 43.875L30.75 43.875" stroke="#FFFFFF" stroke-opacity="1.000000" stroke-width="2.000000" stroke-linejoin="round" stroke-linecap="round"/>
	<path id="Vector" d="M43.875 43.875L46.5 43.875" stroke="#FFFFFF" stroke-opacity="1.000000" stroke-width="2.000000" stroke-linejoin="round" stroke-linecap="round"/>
	<path id="Vector" d="M43.875 37.3125L46.5 37.3125" stroke="#FFFFFF" stroke-opacity="1.000000" stroke-width="2.000000" stroke-linejoin="round" stroke-linecap="round"/>
</svg>
