<svg width="72.000000" height="72.000000" viewBox="0 0 72 72" fill="none" xmlns="http://www.w3.org/2000/svg" xmlns:xlink="http://www.w3.org/1999/xlink">
	<desc>
			Created with Pixso.
	</desc>
	<defs/>
	<circle id="Ellipse 120" cx="36.000000" cy="36.000000" r="36.000000" fill="#40DDB6" fill-opacity="1.000000"/>
	<path id="Vector" d="M41.5 52.1201L28.6602 52.1201C26.3193 52.1201 24.4297 50.23 24.4297 47.8899L24.4297 27" stroke="#FFFFFF" stroke-opacity="1.000000" stroke-width="2.000000"/>
	<path id="Vector" d="M21.5801 19L43.2803 19C45.5498 19 47.4004 20.8401 47.4004 23.1201L47.4004 32.3899" stroke="#FFFFFF" stroke-opacity="1.000000" stroke-width="2.000000"/>
	<path id="Vector" d="M19 26.28L19 21.71C19 20.21 20.21 19 21.71 19C23.21 19 24.4199 20.21 24.4199 21.71L24.4199 26.28L19 26.28Z" stroke="#FFFFFF" stroke-opacity="1.000000" stroke-width="2.000000"/>
	<path id="Vector" d="M51.0996 41.8198L50.6699 43.97L48.5205 44.3999L46.7002 45.6199L44.8799 44.3999L42.7305 43.97L42.2998 41.8198L41.0801 40L42.2998 38.1799L42.7305 36.0298L44.8799 35.5999L46.7002 34.3799L48.5205 35.5999L50.6699 36.0298L51.0996 38.1799L52.3203 40L51.0996 41.8198Z" stroke="#FFFFFF" stroke-opacity="1.000000" stroke-width="2.000000"/>
	<path id="Vector" d="M49.8105 43.8501L49.8105 51.3301L46.71 49.25L43.6104 51.3301L43.6104 43.8501" stroke="#FFFFFF" stroke-opacity="1.000000" stroke-width="2.000000"/>
	<path id="Vector" d="M30.0703 25.25L40.2803 25.25" stroke="#FFFFFF" stroke-opacity="1.000000" stroke-width="2.000000"/>
	<path id="Vector" d="M30.0703 30.5L40.2803 30.5" stroke="#FFFFFF" stroke-opacity="1.000000" stroke-width="2.000000"/>
	<path id="Vector" d="M30.0703 35.6899L40.2803 35.6899" stroke="#FFFFFF" stroke-opacity="1.000000" stroke-width="2.000000"/>
	<path id="Vector" d="M30.0703 40.77L36.8398 40.77" stroke="#FFFFFF" stroke-opacity="1.000000" stroke-width="2.000000"/>
	<path id="Vector" d="M30.0703 45.96L36.8398 45.96" stroke="#FFFFFF" stroke-opacity="1.000000" stroke-width="2.000000"/>
</svg>
