<svg width="72.000000" height="72.000000" viewBox="0 0 72 72" fill="none" xmlns="http://www.w3.org/2000/svg" xmlns:xlink="http://www.w3.org/1999/xlink">
	<desc>
			Created with Pixso.
	</desc>
	<defs/>
	<circle id="Ellipse 120" cx="36.000000" cy="36.000000" r="36.000000" fill="#40DDB6" fill-opacity="1.000000"/>
	<path id="Vector" d="M39.9375 20.25L39.9375 29.4375L49.125 29.4375" stroke="#FFFFFF" stroke-opacity="1.000000" stroke-width="2.000000" stroke-linejoin="round" stroke-linecap="round"/>
	<path id="Vector" d="M39.2812 36L43.2188 39.9375L39.2812 43.875" stroke="#FFFFFF" stroke-opacity="1.000000" stroke-width="2.000000" stroke-linejoin="round" stroke-linecap="round"/>
	<path id="Vector" d="M32.7188 36L28.7812 39.9375L32.7188 43.875" stroke="#FFFFFF" stroke-opacity="1.000000" stroke-width="2.000000" stroke-linejoin="round" stroke-linecap="round"/>
	<path id="Vector" d="M48.7402 51.3655C48.9863 51.1194 49.125 50.7856 49.125 50.4375L49.125 29.4375L39.9375 20.25L24.1875 20.25C23.8398 20.25 23.5059 20.3882 23.2598 20.6345C23.0137 20.8806 22.875 21.2144 22.875 21.5625L22.875 50.4375C22.875 50.7856 23.0137 51.1194 23.2598 51.3655C23.5059 51.6118 23.8398 51.75 24.1875 51.75L47.8125 51.75C48.1602 51.75 48.4941 51.6118 48.7402 51.3655Z" stroke="#FFFFFF" stroke-opacity="1.000000" stroke-width="2.000000" stroke-linejoin="round"/>
</svg>
